<?xml version="1.0" encoding="UTF-8"?>
<svg width="375px" height="88px" viewBox="0 0 375 88" version="1.1" xmlns="http://www.w3.org/2000/svg" xmlns:xlink="http://www.w3.org/1999/xlink">
    <title>shapes copy</title>
    <defs>
        <linearGradient x1="0%" y1="50%" x2="100%" y2="50%" id="linearGradient-1">
            <stop stop-color="#3FABB8" offset="0%"></stop>
            <stop stop-color="#04868F" offset="100%"></stop>
        </linearGradient>
        <rect id="path-2" x="0" y="0" width="375" height="88"></rect>
        <polygon id="path-4" points="0 0 230 0 230 119 0 119"></polygon>
        <linearGradient x1="0%" y1="36.6152555%" x2="133.517325%" y2="69.9299297%" id="linearGradient-6">
            <stop stop-color="#3FABB8" offset="0%"></stop>
            <stop stop-color="#04868F" offset="100%"></stop>
        </linearGradient>
    </defs>
    <g id="Live-now-/-Today-/-Tables/Bracket-/-Tomorrow-" stroke="none" stroke-width="1" fill="none" fill-rule="evenodd">
        <g id="Mobile-UI-Copy" transform="translate(0.000000, -316.000000)">
            <g id="shapes-copy" transform="translate(0.000000, 316.000000)">
                <mask id="mask-3" fill="white">
                    <use xlink:href="#path-2"></use>
                </mask>
                <use id="Mask" fill="url(#linearGradient-1)" xlink:href="#path-2"></use>
                <g id="shapes" mask="url(#mask-3)" fill="#FFFFFF" fill-opacity="0.16">
                    <g transform="translate(-364.000000, -305.000000)">
                        <path d="M325.076,278.188 C376.799,323.682 466.792,415.396 523.893,559.914 C602.328,758.427 570.523,934.637 554.689,1002 L726.942,977.406 L621.075,235.926 L325.076,278.188 Z" id="Fill-9"></path>
                        <path d="M18.688,433.679 C41.025,473.645 81.006,530.145 147.673,556.881 C306.324,620.505 447.837,448.089 629.2,489.611 C688.206,503.12 770.315,543.599 852.623,672.363 L945.199,468.553 L800.372,0.255 L129.85,206.408 L18.688,433.679 Z" id="Fill-18"></path>
                    </g>
                </g>
                <g id="Group-7" mask="url(#mask-3)">
                    <g transform="translate(32.000000, -19.000000)">
                        <g id="Group-3" stroke-width="1" fill="none">
                            <mask id="mask-5" fill="white">
                                <use xlink:href="#path-4"></use>
                            </mask>
                            <g id="Clip-2"></g>
                            <path d="M217.897696,93.0703747 C217.665637,93.0329655 217.442174,93.2360443 217.347632,93.5403655 L217.279466,93.5002842 L217.271464,93.4958307 L217.131281,93.5783686 L216.307963,93.4435765 C216.31389,93.2526706 216.271213,93.0763127 216.180819,92.9421145 C216.107023,92.8310743 216.010406,92.7627876 215.898082,92.7446768 L215.83614,92.7348791 L216.528166,87.437908 C216.59811,87.4088119 216.657087,87.3331027 216.691466,87.2330478 L217.117351,87.302819 L217.129799,87.1997952 C217.179886,86.8064043 217.015103,86.4620017 216.749555,86.4038095 C216.982503,85.7334121 217.435357,85.2981585 217.871319,85.3691173 L217.910736,85.3747584 C218.353811,85.4474986 218.673298,86.0003241 218.7222,86.7256478 C218.614321,86.7072401 218.502589,86.7419772 218.405972,86.8236244 C218.26727,86.9411963 218.168875,87.138634 218.139831,87.364574 L218.126198,87.4678948 L218.549415,87.5364784 C218.555936,87.6433619 218.595353,87.734213 218.654331,87.7834982 L217.961119,93.0810631 L217.897696,93.0703747 Z M215.192126,92.6288863 C215.138483,92.6202762 215.085136,92.6244328 215.032975,92.6398715 C214.835296,90.8941067 214.401705,88.5779993 213.450355,86.7360393 C213.454208,86.7262416 213.459246,86.7170377 213.462802,86.7063494 L213.888391,86.7761206 L213.901135,86.6733936 C213.931365,86.4474537 213.888391,86.226561 213.782586,86.0700953 C213.71205,85.9649931 213.62225,85.900863 213.520298,85.8768142 C213.786439,85.2046354 214.327316,84.7919461 214.883011,84.8819064 L214.931024,84.889032 C215.488497,84.9795861 215.900749,85.5508193 215.985215,86.282081 C215.88682,86.2767369 215.789906,86.308505 215.700995,86.3836204 C215.561997,86.5003016 215.463009,86.6977393 215.433965,86.9236793 L215.420925,87.027297 L215.845328,87.0940992 C215.851551,87.1997952 215.890969,87.2933183 215.948761,87.3443849 L215.256439,92.6407622 L215.192126,92.6288863 Z M213.097377,81.0911028 C212.975865,81.1920484 212.886065,81.3553427 212.844276,81.5444672 L210.654096,81.1870011 C210.662394,80.99372 210.618235,80.8090489 210.526953,80.6727724 C210.454045,80.5614353 210.35565,80.4934455 210.244807,80.4756316 L210.183162,80.4649432 L210.874892,75.1676752 C210.946021,75.1385791 211.003517,75.0637606 211.037896,74.9637057 L211.462892,75.033477 L211.475932,74.9316407 C211.505866,74.7051069 211.46141,74.4836204 211.357087,74.3262641 C211.293664,74.2330378 211.213051,74.1703922 211.121769,74.1430775 C211.432958,73.4750553 212.093273,73.076914 212.787966,73.1918138 L212.848426,73.2007208 C213.540451,73.314433 214.072437,73.904074 214.198988,74.6421644 C213.944109,74.6368202 213.709086,74.9135299 213.660185,75.2873254 L213.645367,75.3894586 L214.06977,75.4589329 C214.076883,75.5646289 214.115411,75.6557768 214.174389,75.7071403 L213.479992,81.00233 L213.418347,80.99372 C213.308689,80.975906 213.19755,81.0079711 213.097377,81.0911028 L213.097377,81.0911028 Z M212.20293,84.7254407 C212.380456,84.8943761 212.522714,85.1039867 212.621109,85.3420995 C212.480037,85.1253634 212.340742,84.9202063 212.20293,84.7254407 L212.20293,84.7254407 Z M210.799317,97.3074172 L209.57738,98.0270999 C209.612945,97.6604299 209.814181,96.6788825 210.941575,96.6681942 C211.056271,96.6670066 211.158519,96.6791794 211.255728,96.6966964 C211.268769,96.7480599 211.284476,96.7982358 211.293664,96.8510838 C211.084723,96.847521 210.890007,97.0339735 210.799317,97.3074172 L210.799317,97.3074172 Z M208.965967,80.911479 L208.650629,80.8601155 L208.152429,73.5715474 C208.152429,73.5715474 208.048996,73.2241758 207.860504,72.7809059 C208.164284,72.5858434 208.524671,72.4964769 208.896024,72.5564504 L208.95678,72.5668419 C209.649695,72.6805541 210.18168,73.2701951 210.307934,74.0103638 C210.05839,74.0142234 209.828703,74.2867765 209.780987,74.6531496 L209.765279,74.7555797 L210.191461,74.825054 C210.199463,74.9316407 210.237102,75.02457 210.296969,75.0735583 L209.602572,80.3708263 L209.540334,80.3592473 C209.287826,80.3194628 209.043024,80.5608415 208.965967,80.911479 L208.965967,80.911479 Z M207.719431,68.6611384 L208.412643,63.3662456 C208.484068,63.3347743 208.543046,63.2605496 208.577129,63.1604947 L209.000346,63.2299691 L209.014276,63.1293204 C209.061991,62.7629473 208.920622,62.441109 208.690639,62.3481797 C209.000346,61.6780791 209.662735,61.2817193 210.356539,61.3954315 L210.415813,61.4043385 C211.1111,61.5162693 211.6419,62.1079886 211.769043,62.8472665 C211.518609,62.85172 211.288922,63.1251638 211.239428,63.4915369 L211.22787,63.5936701 L211.653162,63.6646289 C211.659682,63.767059 211.696136,63.8617697 211.755113,63.9110549 L211.062791,69.2086198 L211.000257,69.1973376 C210.735005,69.1554749 210.480719,69.4232776 210.415813,69.800636 L208.187105,69.4366381 C208.224744,69.0527479 208.048996,68.7154709 207.78404,68.6721237 L207.719431,68.6611384 Z M207.07601,68.5578177 C206.813129,68.5168456 206.556768,68.7834607 206.493938,69.1605222 L205.513247,69.0013844 L204.288642,68.8018685 C204.309092,68.5878044 204.264933,68.3832412 204.166241,68.2350887 C204.092148,68.1234548 203.994939,68.055168 203.884392,68.0379479 L203.819487,68.026072 L204.513291,62.7299915 C204.582049,62.7000047 204.642805,62.6239987 204.677481,62.5257252 L205.100995,62.5949026 L205.115813,62.4927694 C205.162047,62.1210521 205.018011,61.7953542 204.779136,61.7092535 C205.090918,61.0388561 205.750047,60.6439807 206.445037,60.7550208 L206.505793,60.766303 C206.531281,60.7716472 206.552916,60.7864921 206.5787,60.7924301 C207.23368,60.9340508 207.735732,61.4972678 207.856947,62.2074497 C207.598512,62.2029962 207.367343,62.4737679 207.31696,62.85172 L207.304216,62.9535563 L207.729508,63.0230306 C207.737214,63.1293204 207.774853,63.2201714 207.834423,63.2709411 L207.140323,68.5679122 L207.07601,68.5578177 Z M205.449823,100.458107 C205.449823,100.458107 204.965257,100.898111 205.120852,101.328021 L203.665374,101.340193 L203.649074,99.7868189 L203.990493,97.1782663 C204.193507,96.9306527 204.51092,96.7346995 205.012084,96.7290584 C206.409176,96.7159949 206.462226,98.1957384 206.462226,98.1957384 L206.480008,99.8515429 L205.449823,100.458107 Z M202.188262,84.8587483 L202.201006,84.7646314 C202.21701,84.6434967 202.209304,84.5271123 202.185891,84.4205257 C202.189744,84.234667 202.190929,84.0081333 202.184113,83.7664577 C202.182038,83.6854043 202.178482,83.6022726 202.174629,83.519141 C202.523161,83.1420795 203.017508,82.9461263 203.531118,83.0310394 L203.591578,83.0387588 C203.60936,83.0420247 203.625661,83.0488533 203.641665,83.0559789 C203.108494,83.6105858 202.562282,84.2474337 202.188262,84.8587483 L202.188262,84.8587483 Z M202.495006,114.809007 L202.453514,110.92468 L202.47426,110.777121 L202.515455,115.774521 L202.495006,114.809007 Z M202.39424,105.40741 L202.375272,103.743292 L202.416468,103.750121 L202.430693,105.453726 C202.418542,105.43799 202.406391,105.422552 202.39424,105.40741 L202.39424,105.40741 Z M201.71644,79.0849577 C201.605893,79.0650655 201.49594,79.1003964 201.396359,79.1841219 C201.273662,79.2847706 201.185639,79.4459866 201.144444,79.6360018 L200.613051,79.5493074 L200.418039,77.7257551 C200.418039,77.7257551 200.919498,75.5123747 200.297712,74.9856763 C199.678001,74.4580871 199.406821,74.1917689 199.406821,74.1917689 C199.406821,74.1917689 199.401783,74.168017 199.273455,73.5133552 C199.272269,73.5127614 199.27138,73.5121676 199.270194,73.5115738 C199.253894,73.4272546 199.235815,73.3372942 199.217144,73.2443649 C199.273455,73.2075495 199.321763,73.1419348 199.3514,73.0579125 L199.775507,73.1259023 L199.787954,73.0249567 C199.837745,72.6452232 199.68541,72.3100245 199.437644,72.2328308 C199.747944,71.5677775 200.408259,71.1726052 201.101766,71.2857237 L201.159559,71.2952244 C201.854252,71.4089367 202.384459,71.9982807 202.511603,72.7378556 C202.414097,72.7310269 202.31748,72.7636858 202.226494,72.8370198 C202.085125,72.9542948 201.987619,73.1511387 201.958871,73.3803446 L201.944942,73.4812901 L202.369641,73.5504676 C202.376457,73.6567573 202.415578,73.7487959 202.474556,73.7980811 L201.780752,79.0938647 L201.71644,79.0849577 Z M198.728725,67.8942489 L197.841391,67.7496592 C197.42736,66.4254906 196.942498,65.1387313 196.397768,64.1313538 L196.746597,61.4619368 C196.817726,61.4328407 196.877889,61.3595067 196.91049,61.2570767 L197.336671,61.3277386 L197.348822,61.226793 C197.380238,60.9993685 197.336671,60.7793665 197.232052,60.6217133 C197.170111,60.5311592 197.092758,60.4691073 197.004439,60.4403081 C197.315629,59.7708014 197.975647,59.3756291 198.671229,59.4881537 L198.731096,59.4976545 C199.426086,59.6107729 199.956293,60.2027891 200.082843,60.9405826 C199.828261,60.9414733 199.603612,61.2104636 199.552043,61.5857436 L199.539596,61.6857985 L199.965184,61.7549759 C199.971112,61.8624533 200.00964,61.9544919 200.067728,62.0037771 L199.374221,67.3019358 L199.310797,67.2894661 C199.046434,67.2479003 198.791852,67.5159999 198.728725,67.8942489 L198.728725,67.8942489 Z M197.914298,78.46533 L197.850578,78.4540478 C197.703578,78.429999 197.560727,78.5042237 197.45107,78.638125 C196.901599,78.4279207 196.328417,78.230483 195.733305,78.0493748 L195.69122,74.0890419 C196.637828,74.3743617 197.535832,74.7000596 198.351741,75.0593072 L198.352334,75.1172024 L197.914298,78.46533 Z M196.020488,97.4692271 L196.110585,96.7789374 L196.118883,97.539889 L196.020488,97.4692271 Z M195.731823,115.792335 L196.116216,113.058788 L196.144667,115.788179 L195.731823,115.792335 Z M195.478426,97.0799928 L192.380165,94.8553302 L192.382832,94.8342504 C192.451294,94.8039667 192.510272,94.7294451 192.544651,94.6326561 L192.96935,94.7000521 L192.98239,94.5970283 C193.013509,94.3707914 192.96935,94.1510863 192.864731,93.9928393 C192.80279,93.9019882 192.725733,93.8414209 192.637711,93.8114341 C192.674757,93.7318652 192.717435,93.6564529 192.764261,93.5843065 L195.686182,95.4918812 L195.478426,97.0799928 Z M191.906564,105.705496 L191.822395,106.342641 L191.027232,106.214084 L191.110808,105.574861 C191.138964,105.357531 191.14252,105.141685 191.126516,104.9297 C191.359167,104.395282 191.780903,103.848394 192.550282,103.612063 C192.789749,103.537244 193.062114,103.4936 193.375378,103.490037 C193.534529,103.487959 193.684493,103.497163 193.825269,103.515868 C192.834205,103.766153 192.050304,104.605189 191.906564,105.705496 L191.906564,105.705496 Z M190.921427,113.891886 L190.918464,113.609535 L190.863931,108.376398 L191.50676,108.481203 C191.530766,108.485062 191.553586,108.485062 191.577592,108.483875 L190.921427,113.891886 Z M189.619766,92.8735309 C189.912581,92.4489656 190.333428,92.2114466 190.76524,92.2827023 L190.771167,92.283593 L191.543806,92.7877271 C191.710959,93.0273244 191.826544,93.3343178 191.866554,93.6799079 C191.649314,93.6511088 191.440373,93.832217 191.340496,94.1089267 L189.619766,92.8735309 Z M188.760291,88.9503104 L188.008694,88.8270974 L188.011955,87.0733163 L187.472263,86.6965517 L187.646529,85.3673359 L189.160095,86.3560088 L189.183509,88.4227212 C188.992646,88.4746785 188.826085,88.6771635 188.760291,88.9503104 L188.760291,88.9503104 Z M186.929905,86.3183027 L185.023351,84.9881962 L185.023351,85.0131357 L182.11862,87.0462985 L182.127511,91.6847481 L174.011691,97.5122774 L174.030363,95.7356351 L180.914762,91.2417752 L180.970183,86.3295848 L185.050321,83.6637307 L185.050321,83.6708563 L187.101207,85.0107605 L186.929905,86.3183027 Z M186.568332,104.835286 L186.485348,105.472431 L185.743532,105.351296 L185.828294,104.712667 C185.970256,103.627502 185.605127,102.578855 184.914583,102.052157 C184.606357,104.406564 183.660341,111.638721 183.107906,115.856762 L182.962981,115.855278 L182.972761,114.890357 L183.088345,103.976061 C183.088345,103.976061 183.093087,103.842753 183.125688,103.632549 C183.212228,103.069035 183.495855,101.938741 184.416087,101.241326 C184.588278,101.110097 184.792774,101.003213 185.015052,100.911472 L185.080254,100.92216 C185.317054,101.016574 185.532812,101.129692 185.714191,101.267453 C186.618715,101.952992 186.90738,103.053299 186.998959,103.626017 C186.775199,103.977842 186.626124,104.389344 186.568332,104.835286 L186.568332,104.835286 Z M185.356175,115.901 L185.067214,115.904266 L185.067214,115.877842 L184.262863,115.869232 L184.25249,115.869232 L185.432343,107.482138 C185.454867,107.490155 185.476502,107.497577 185.499619,107.500843 L186.288558,107.629103 C186.31286,107.632666 186.334792,107.634151 186.357316,107.632666 L185.356175,115.901 Z M179.212111,113.582518 L179.187809,115.816384 L173.986204,115.76027 L174.03629,110.899443 L174.085784,106.163908 C174.085784,106.163908 174.167879,104.071959 175.91054,103.569903 C176.158009,103.499835 176.437783,103.459754 176.755493,103.46302 C177.068164,103.465989 177.340825,103.511117 177.580293,103.584748 C179.31021,104.116494 179.288877,106.220022 179.288877,106.220022 L179.212111,113.582518 Z M171.778833,75.0331801 C172.594742,74.6736356 173.492746,74.347047 174.439058,74.0626179 L174.39727,78.022357 C173.452736,78.309755 172.554732,78.6345623 171.737638,78.9938098 L171.778833,75.0331801 Z M176.872263,73.4533817 C177.944829,73.2307076 179.078448,73.0525683 180.23548,72.936184 L180.193691,76.8941416 C179.031917,77.0096352 177.905115,77.1800551 176.830475,77.4116362 L176.872263,73.4533817 Z M183.595732,72.7485439 C183.864541,72.7423091 184.146686,72.7408246 184.419347,72.7440905 C184.519817,72.7458719 184.617323,72.7470595 184.713347,72.7509191 C184.831006,72.7521067 184.947183,72.7586385 185.063657,72.7624982 L185.063657,72.7889222 C185.180724,72.7856563 185.298383,72.7797183 185.416931,72.7770462 C185.513252,72.7740772 185.611054,72.7722959 185.711228,72.7708114 C185.983592,72.7684362 186.26633,72.7696238 186.534842,72.7761555 L186.577223,76.7281752 C186.307822,76.7275814 186.024788,76.7305504 185.752719,76.734707 C185.65225,76.734707 185.556226,76.7391605 185.456941,76.7406449 C185.326538,76.7430201 185.196728,76.7486612 185.067214,76.7531147 L185.067214,76.7255031 C184.935921,76.7219403 184.805518,76.7157054 184.673337,76.7130334 C184.574349,76.7124396 184.478028,76.7067985 184.377855,76.7067985 C184.10549,76.7035326 183.822456,76.7002667 183.553055,76.7011574 L183.595732,72.7485439 Z M191.392953,73.1514356 L190.884677,77.0295275 C190.571413,76.9891492 190.255778,76.9523338 189.936883,76.9205656 L189.895095,72.9623111 C190.400407,73.0133777 190.899792,73.0783985 191.392953,73.1514356 L191.392953,73.1514356 Z M191.974729,73.2437711 C192.409802,73.3159175 192.83954,73.3940019 193.258015,73.4809932 L193.3001,77.438654 C192.704987,77.3103937 192.092092,77.2026194 191.467342,77.1105808 L191.974729,73.2437711 Z M193.003433,59.7898029 C193.003136,59.7898029 193.00284,59.7900998 193.002544,59.7900998 C192.590884,59.3331726 192.186931,58.8946531 191.796907,58.4730568 C191.912788,58.4243654 192.033114,58.4044732 192.153737,58.4240685 L192.192858,58.4320848 C192.630302,58.5024498 192.951864,59.0695265 193.003433,59.7898029 L193.003433,59.7898029 Z M192.352899,49.4013146 C192.422546,49.3719216 192.480931,49.2965093 192.514124,49.1964544 L192.938824,49.2659287 L192.951864,49.1652801 C193.005507,48.7668419 192.825314,48.4078913 192.553542,48.3633565 L192.483894,48.3517774 C192.71862,47.6819738 193.169993,47.2449387 193.606251,47.3170852 L193.645076,47.3239138 C194.09141,47.396654 194.40912,47.9536361 194.456835,48.6828195 C194.212033,48.6938048 193.987977,48.9627951 193.941446,49.3256054 L193.927517,49.4292231 L194.351624,49.496916 C194.35844,49.6017213 194.396968,49.6928692 194.456243,49.7442327 L193.762142,55.04061 L193.700201,55.0305155 C193.445025,54.9892465 193.204372,55.2252811 193.127019,55.580372 L192.130917,55.4167808 C192.140104,55.2237966 192.094463,55.04061 192.003774,54.905818 C191.93057,54.7947778 191.83336,54.7258973 191.722221,54.7086772 L191.659687,54.6970981 L192.352899,49.4013146 Z M193.804227,38.3026444 C193.873281,38.2738452 193.933741,38.1984329 193.966342,38.0986749 L194.391634,38.1678523 L194.40497,38.0654223 C194.434608,37.8397792 194.391634,37.6171051 194.286718,37.4615302 C194.212033,37.3501931 194.113934,37.2825002 194.006055,37.2646863 L193.841569,37.2379654 C194.086964,36.5105634 194.576866,36.0370098 195.072398,36.1174694 L195.112704,36.1225167 C195.605569,36.2053514 195.952619,36.8142908 196.00152,37.5918687 L195.981367,37.588009 C195.709002,37.544068 195.445232,37.8290908 195.39396,38.2269352 L195.380327,38.3281777 L195.804434,38.3982458 C195.810954,38.5039418 195.849186,38.5956835 195.909942,38.6467501 L195.214952,43.9434243 L195.153307,43.9306577 C194.901984,43.8920608 194.661035,44.1277985 194.581607,44.4713103 L193.581949,44.3089067 C193.589061,44.1185946 193.545791,43.9398615 193.456287,43.8068509 C193.382787,43.6955138 193.284096,43.6284147 193.173253,43.610007 L193.111904,43.6002093 L193.804227,38.3026444 Z M196.650869,38.5368975 L197.075865,38.6063718 L197.089794,38.5024573 C197.141363,38.0995656 196.964429,37.7471468 196.687322,37.7032058 L196.580036,37.6836104 C196.859514,36.9627402 197.443364,36.5034378 198.050628,36.6040865 L198.09953,36.6115089 C198.70709,36.71097 199.148386,37.3362389 199.231666,38.1155982 L199.146608,38.1031284 C198.874836,38.0591874 198.611362,38.3453978 198.56009,38.743836 L198.544382,38.8447816 L198.969674,38.913959 C198.977084,39.0202487 199.014723,39.1108029 199.074293,39.1630571 L198.380786,44.4591375 L198.31588,44.448746 C198.206519,44.4315259 198.095677,44.4668569 197.997578,44.5473164 C197.877548,44.6470744 197.789229,44.8050246 197.748034,44.9879142 L196.266476,44.7465355 C196.278034,44.3923353 196.107621,44.0877171 195.85778,44.0485265 L195.79495,44.0369474 L196.489643,38.7411639 C196.558994,38.7111771 196.61649,38.6345772 196.650869,38.5368975 L196.650869,38.5368975 Z M199.652809,39.2577678 C199.723938,39.2274841 199.782916,39.151478 199.816406,39.0514231 L200.241402,39.1223819 L200.254442,39.0202487 C200.306011,38.620623 200.127003,38.2616724 199.85286,38.2180282 L199.816406,38.212981 C200.137376,37.4983456 200.841849,37.0574509 201.589889,37.1800701 L201.648571,37.1901647 C202.395425,37.3127839 202.957937,37.9579449 203.083598,38.7447267 L203.04833,38.7396794 C202.770631,38.6942539 202.511306,38.9757139 202.457959,39.3789025 L202.445512,39.4825201 L202.868729,39.5511038 C202.876435,39.6582842 202.913185,39.7473539 202.972459,39.7984204 L202.279544,45.094204 L202.217603,45.0844063 C202.106167,45.0662955 201.996806,45.1016265 201.897522,45.1823829 C201.777196,45.2824378 201.688877,45.4418725 201.645903,45.6244652 L199.432606,45.2634363 C199.442682,44.9083454 199.271676,44.6049148 199.023318,44.5636459 L198.96108,44.5538482 L199.652809,39.2577678 Z M200.445898,27.3331252 C200.717077,25.256912 202.445512,23.8211095 204.30435,24.1236494 C206.162595,24.4270799 207.450623,26.3560313 207.178555,28.4322445 L206.313744,35.0489307 L199.579606,33.9515928 L200.445898,27.3331252 Z M207.580433,40.3179933 L208.007504,40.3880614 L208.021137,40.2856313 C208.072113,39.8901622 207.890734,39.530024 207.619554,39.4851922 L207.592288,39.4804419 C207.912665,38.7658065 208.61625,38.3266932 209.363697,38.4481248 L209.422378,38.4567349 C209.441346,38.4605945 209.457054,38.4733612 209.475429,38.476924 C210.19561,38.620623 210.735005,39.2464856 210.856517,40.0130783 L210.812654,40.0059527 C210.540586,39.9614179 210.274741,40.2479252 210.223469,40.6457696 L210.209539,40.7481996 L210.635424,40.8161895 C210.641352,40.9224792 210.680176,41.0127365 210.73945,41.0664751 L210.04535,46.3631494 L209.982816,46.3509765 C209.732975,46.3108952 209.491136,46.5481173 209.411116,46.8916292 L208.40553,46.7271473 L207.198708,46.5291158 C207.208784,46.1752124 207.040149,45.8705943 206.790309,45.8311068 L206.725996,45.8201215 L207.419504,40.5234473 C207.489151,40.4940543 207.548129,40.4174544 207.580433,40.3179933 L207.580433,40.3179933 Z M211.481859,40.955435 L211.90567,41.0263938 L211.919006,40.9224792 C211.972057,40.5270101 211.793049,40.1656842 211.519499,40.1202587 L211.503198,40.1190711 C211.824464,39.4041389 212.527752,38.9656194 213.276089,39.0861603 L213.335363,39.0959579 C214.083107,39.2170926 214.64384,39.8637382 214.770094,40.6496293 L214.736012,40.6457696 C214.46335,40.6000472 214.198988,40.8877421 214.145641,41.2864771 L214.132897,41.3871258 L214.557596,41.4580846 C214.564709,41.5643744 214.601756,41.6537409 214.662512,41.7051044 L213.967522,47.0002942 L213.905877,46.9901996 C213.79533,46.9720888 213.684488,47.0080135 213.585203,47.0896607 C213.464877,47.1897156 213.377744,47.3461812 213.335363,47.5305554 L211.097466,47.1662606 C211.103098,46.9747609 211.059531,46.7957309 210.971212,46.6630171 C210.896527,46.551977 210.799614,46.4848779 210.688475,46.4658764 L210.627126,46.4554849 L211.319152,41.1597014 C211.388799,41.1297146 211.447777,41.0537085 211.481859,40.955435 L211.481859,40.955435 Z M215.066169,29.7801649 C215.264144,28.2665749 216.528166,27.2146626 217.883766,27.4358521 C218.540821,27.5430326 219.119337,27.9292979 219.516177,28.5242831 C219.912721,29.1189713 220.079282,29.8496392 219.983554,30.5829792 L219.124375,37.1390981 L214.207879,36.3374714 L215.066169,29.7801649 Z M220.716776,40.301367 L220.765084,40.3087895 C221.372348,40.4088443 221.815126,41.0326287 221.897221,41.8128787 L221.842688,41.8039717 C221.732142,41.7864547 221.621003,41.8217856 221.521719,41.9019483 C221.380053,42.0218954 221.281362,42.2184424 221.254096,42.44557 L221.23987,42.5462187 L221.665162,42.6168806 C221.671386,42.7237641 221.710211,42.8134276 221.767114,42.8636035 L221.074792,48.1596839 L221.013146,48.1498862 C220.900822,48.1317754 220.790275,48.1659188 220.69188,48.2496442 C220.572147,48.3476208 220.483828,48.505571 220.441743,48.690242 L218.899133,48.4390656 C218.904764,48.2481597 218.862383,48.0688329 218.772879,47.9346346 C218.698194,47.8247821 218.600095,47.7553078 218.48777,47.7386814 L218.427014,47.7273993 L219.119337,42.4325064 C219.188984,42.401629 219.249147,42.3271074 219.282341,42.2267556 L219.707336,42.295933 L219.720969,42.1949874 C219.751199,41.9681567 219.709411,41.7469671 219.602717,41.5893139 C219.528328,41.4779768 219.431415,41.4114715 219.320276,41.3933607 L219.244405,41.3802971 C219.524179,40.6594269 220.109512,40.1998276 220.716776,40.301367 L220.716776,40.301367 Z M222.347408,42.9595018 C222.416462,42.929515 222.476922,42.853212 222.510708,42.7549385 L222.936297,42.8232252 L222.94993,42.721092 C223.001498,42.3167159 222.82664,41.9637033 222.550422,41.9191684 L222.474551,41.9078863 C222.720539,41.1804843 223.209847,40.7066338 223.70449,40.7873903 L223.744204,40.7936252 C224.236772,40.8728971 224.587972,41.4856962 224.635687,42.2597113 L224.547369,42.2457571 C224.269669,42.2003316 224.01153,42.4823854 223.959665,42.8867616 L223.943069,42.9885978 L224.369843,43.0568846 C224.37577,43.1628774 224.413409,43.2555098 224.472683,43.3062795 L223.780657,48.6020631 L223.716345,48.5913747 C223.605206,48.5741546 223.495845,48.6082979 223.396264,48.690242 C223.277716,48.7888124 223.188212,48.9461688 223.146424,49.1311367 L222.126315,48.9639827 C222.137874,48.6094855 221.967757,48.3063519 221.719398,48.2653799 L221.656271,48.2555822 L222.347408,42.9595018 Z M222.917329,54.1552579 C222.923849,54.2615476 222.961488,54.3523986 223.021059,54.4028714 L222.326958,59.7001395 L222.265017,59.6885604 C222.012805,59.6478853 221.769485,59.8883733 221.693021,60.2381201 L220.67558,60.0724505 C220.684175,59.8806539 220.641497,59.6974674 220.547844,59.5614877 C220.474937,59.4504476 220.378024,59.3830516 220.265403,59.3643469 L220.202572,59.3536586 L220.897562,54.0569844 C220.965727,54.0267007 221.02589,53.9521791 221.058787,53.8536087 L221.484969,53.923083 L221.497416,53.8212467 C221.526461,53.5920409 221.484969,53.3711482 221.379164,53.2143856 C221.309517,53.1110648 221.218531,53.0448564 221.115098,53.0222921 C221.347749,52.345066 221.794973,51.9151566 222.238936,51.9867092 L222.277168,51.9917564 C222.714315,52.0636059 223.034396,52.6271198 223.088928,53.3432397 C222.815378,53.3022677 222.559017,53.5819463 222.505077,53.984838 L222.492037,54.0857835 L222.917329,54.1552579 Z M221.465705,65.262835 C221.471039,65.3697186 221.507789,65.4608665 221.567064,65.5116362 L220.874445,70.8089042 L220.810725,70.7958407 C220.546955,70.7554624 220.293558,71.0217806 220.228949,71.4009204 L219.216843,71.2364385 C219.237292,71.0217806 219.193726,70.8160298 219.095923,70.6696587 C219.020941,70.5586185 218.923732,70.4891442 218.812593,70.4728148 L218.750355,70.4609388 L219.443566,65.1639677 C219.511435,65.1348716 219.572488,65.0588655 219.605088,64.9591076 L220.028306,65.0306602 L220.043421,64.9264487 C220.072762,64.7016963 220.03127,64.4816943 219.926651,64.3252287 C219.8573,64.2204234 219.766314,64.1548088 219.661695,64.13076 C219.895235,63.4523462 220.340977,63.021843 220.784941,63.0933956 L220.824062,63.1017088 C221.261505,63.1723707 221.583957,63.7352908 221.634932,64.4528951 C221.526461,64.4353781 221.417693,64.4695215 221.320779,64.5511686 C221.180892,64.667553 221.082497,64.8646937 221.052267,65.0921182 L221.038634,65.1930638 L221.465705,65.262835 Z M214.754683,75.8003665 C214.823737,75.7709735 214.883011,75.6955612 214.915612,75.5961001 L215.341794,75.6652776 L215.354538,75.5640351 C215.383878,75.3366106 215.341794,75.1174993 215.237175,74.9598461 C215.166638,74.8547439 215.076245,74.7885355 214.973997,74.7671588 C215.241324,74.0937923 215.780719,73.6793216 216.337007,73.769282 L216.385019,73.7781889 C216.942196,73.8690399 217.355634,74.4417577 217.437432,75.1706442 C217.340519,75.1676752 217.24242,75.2000372 217.155287,75.2733712 C217.015103,75.3894586 216.917005,75.5874901 216.888257,75.8140239 L216.874031,75.9164539 L217.29873,75.9859282 C217.305251,76.089249 217.344668,76.1815845 217.403646,76.2314635 L216.710138,81.530513 L216.647307,81.5189339 C216.536168,81.5014169 216.423844,81.5349664 216.323967,81.6201764 C216.203047,81.7208251 216.11384,81.8826349 216.072348,82.069978 L214.531516,81.8196924 C214.54752,81.460148 214.376514,81.1492949 214.12282,81.1089167 L214.05999,81.0973376 L214.754683,75.8003665 Z M218.758653,64.8225341 C218.767248,64.9264487 218.804294,65.0181904 218.862383,65.069257 L218.169764,70.3659312 L218.106637,70.3561336 C217.84346,70.3136771 217.587692,70.5826673 217.523379,70.9594319 L215.989068,70.70974 C216.025818,70.3267406 215.847995,69.9876822 215.584225,69.9446319 L215.52258,69.9345373 L216.214606,64.6372693 C216.284253,64.608767 216.34412,64.5321671 216.377313,64.4330029 L216.802309,64.5018834 L216.816239,64.3997503 C216.846172,64.1735134 216.800827,63.9555897 216.69769,63.7958581 C216.627154,63.6928343 216.536168,63.6269227 216.432735,63.6040615 C216.70095,62.9306951 217.24242,62.517412 217.798708,62.6088568 L217.847609,62.6162793 C218.401823,62.7062396 218.815853,63.2783636 218.899133,64.0099222 C218.800738,64.004578 218.703528,64.0363461 218.61521,64.1108677 C218.476212,64.2269552 218.378113,64.4237991 218.348476,64.6512235 L218.335436,64.7521691 L218.758653,64.8225341 Z M220.213834,53.7146601 C220.219169,53.8212467 220.256808,53.9112071 220.316378,53.9619767 L219.624056,59.2595417 L219.561226,59.2491502 C219.309903,59.208772 219.065397,59.4483693 218.987155,59.7975223 L217.44573,59.5472366 C217.460252,59.1868015 217.290728,58.8780267 217.03822,58.8376485 L216.974797,58.8272571 L217.668601,53.5296921 C217.738248,53.4997053 217.798708,53.4242931 217.831902,53.3269103 L218.256305,53.3966815 L218.268752,53.2939545 C218.320321,52.9059078 218.149907,52.5540827 217.887916,52.4955937 C218.155242,51.8240086 218.695823,51.4086472 219.250629,51.5000921 L219.298641,51.5066238 C219.855225,51.5992563 220.268366,52.1684112 220.352536,52.8984853 C220.0941,52.8857187 219.849594,53.1651004 219.800397,53.5442402 L219.788246,53.6448889 L220.213834,53.7146601 Z M215.441967,40.7606694 L215.394844,40.7532469 C215.715517,40.0380178 216.420583,39.5986076 217.166549,39.7200392 L217.226119,39.7313213 C217.973863,39.852456 218.534004,40.4982109 218.658776,41.2864771 L218.614321,41.2784609 C218.341659,41.2333323 218.077,41.5210272 218.025135,41.9191684 L218.011206,42.0218954 L218.43472,42.0907759 C218.442426,42.1955812 218.480361,42.2864322 218.540821,42.3380926 L217.847609,47.6335793 L217.782704,47.6243754 C217.534345,47.5837003 217.292803,47.8200317 217.213079,48.1620591 L215.020824,47.8063743 C215.026751,47.6148746 214.982888,47.4367354 214.893384,47.3031309 C214.820774,47.1938722 214.722082,47.1241009 214.612129,47.1065839 L214.54752,47.0944111 L215.241324,41.7998151 C215.310378,41.7683439 215.371727,41.694713 215.404031,41.5952519 L215.829027,41.6650231 L215.842957,41.562593 C215.894229,41.1585138 215.71937,40.8069856 215.441967,40.7606694 L215.441967,40.7606694 Z M214.27308,52.0570742 C214.208471,51.9611759 214.128155,51.8994209 214.03628,51.8727 C214.34658,51.2034902 215.006598,50.8071303 215.700995,50.9208425 L215.759676,50.9309371 C216.455555,51.0434617 216.986355,51.6345872 217.113499,52.3726776 C217.01866,52.3717869 216.927081,52.4044457 216.84143,52.474217 C216.70095,52.5917889 216.603444,52.7874452 216.57114,53.0172448 L216.560174,53.1187842 L216.984874,53.1879616 C216.991394,53.2939545 217.027255,53.3848055 217.088307,53.4367628 L216.395096,58.7325463 L216.331672,58.7224518 C216.222608,58.7049348 216.111469,58.7378905 216.011888,58.821616 C215.889191,58.9216709 215.801168,59.0822931 215.759676,59.27023 L213.568607,58.9130608 C213.581647,58.5550009 213.41153,58.246523 213.159911,58.2046603 L213.097377,58.1951596 L213.790292,52.8972977 C213.858161,52.8679047 213.917139,52.7921956 213.953,52.6945159 L214.376514,52.7619119 L214.390443,52.6612632 C214.421266,52.4341356 214.376514,52.2150243 214.27308,52.0570742 L214.27308,52.0570742 Z M209.866342,52.2583715 C209.935989,52.2283848 209.996449,52.1535663 210.028753,52.0544021 L210.454045,52.1215012 L210.465604,52.0208525 C210.497612,51.793725 210.454045,51.5725354 210.347648,51.4157728 C210.292523,51.3311567 210.223469,51.2732614 210.144338,51.2403056 C210.454045,50.570502 211.114656,50.1726576 211.810831,50.2866667 L211.869809,50.2952768 C212.564799,50.408989 213.095302,51.0004114 213.221853,51.7390956 C212.972309,51.7444398 212.742325,52.0169928 212.692831,52.383069 L212.680383,52.4872805 L213.106268,52.5552703 C213.113085,52.6612632 213.149242,52.7524111 213.20822,52.802587 L212.516787,58.1001519 L212.454252,58.0897605 C212.198188,58.0461164 211.958127,58.2842292 211.881664,58.6378356 L209.644656,58.272947 C209.65829,57.9154809 209.488469,57.6055186 209.237147,57.5636558 L209.17402,57.554452 L209.866342,52.2583715 Z M205.968472,51.6218206 C206.036341,51.5927245 206.097097,51.5182029 206.129698,51.4169604 L206.554398,51.4861378 L206.568327,51.3843015 C206.616339,51.0203036 206.468154,50.6880739 206.232835,50.6007857 C206.542839,49.9297944 207.20345,49.5355128 207.898736,49.6474437 L207.957714,49.6572413 C207.980238,49.6613979 207.999205,49.6750553 208.021137,49.6795087 C208.68234,49.8193481 209.185578,50.3843464 209.309165,51.0989818 C209.054582,51.0963097 208.820153,51.371238 208.771252,51.7444398 L208.757026,51.8465729 L209.183503,51.9151566 C209.190913,52.0208525 209.22707,52.1120004 209.285751,52.1633639 L208.593133,57.4609289 L208.530302,57.4493498 C208.280758,57.407784 208.036252,57.6488658 207.956232,57.997425 L206.962797,57.8368027 L205.745898,57.6375836 C205.761605,57.2738826 205.592081,56.9716397 205.336313,56.9288863 L205.274372,56.9187917 L205.968472,51.6218206 Z M204.036431,39.0514231 C203.962042,38.9406799 203.864832,38.8726901 203.753989,38.8548761 L203.708348,38.8474537 C204.028725,38.1319276 204.732309,37.6940019 205.478868,37.8154335 L205.540216,37.8243405 C206.288256,37.9466628 206.848397,38.5933083 206.974355,39.3789025 L206.912414,39.3699955 C206.80246,39.3512909 206.691617,39.3866218 206.591148,39.4685659 C206.45126,39.5849502 206.354051,39.7832786 206.323525,40.0089217 L206.310781,40.1113518 L206.736369,40.181123 C206.742297,40.2856313 206.779936,40.3794514 206.83921,40.4299242 L206.147184,45.7242232 L206.083168,45.7147224 C205.834513,45.6752349 205.592081,45.9115663 205.513247,46.2559689 L203.330772,45.8999873 C203.343812,45.5440056 203.17251,45.2405751 202.924744,45.1990093 L202.858949,45.1892116 L203.55305,39.8931312 C203.622104,39.8637382 203.680786,39.788029 203.71635,39.6879741 L204.14016,39.7577453 L204.153794,39.6553152 C204.18432,39.4296722 204.14016,39.2084826 204.036431,39.0514231 L204.036431,39.0514231 Z M201.880925,57.0072675 C201.894855,56.6471293 201.72296,56.3392453 201.470452,56.2982732 L201.408214,56.2881787 L202.099943,50.9915045 C202.170776,50.9627053 202.229754,50.8864023 202.264133,50.7881288 L202.687351,50.8558217 L202.702465,50.7539854 C202.751959,50.3801899 202.594883,50.0414284 202.35097,49.963344 C202.662752,49.2974 203.321584,48.9022277 204.015092,49.012971 L204.073181,49.02455 C204.767874,49.1370747 205.297489,49.7270125 205.425817,50.4645091 C205.166493,50.4499611 204.922283,50.7284521 204.871011,51.1075919 L204.858563,51.2109127 L205.283559,51.2791994 C205.289487,51.3843015 205.328015,51.4772309 205.388178,51.5265161 L204.694374,56.824081 L204.630654,56.8142833 C204.378443,56.7724206 204.136011,57.0137993 204.059844,57.3620616 L201.880925,57.0072675 Z M198.201481,50.3549535 C198.270832,50.3258574 198.330106,50.2501482 198.363003,50.1515778 L198.789481,50.2207552 L198.803114,50.1183251 C198.849644,49.7495769 198.699681,49.4128936 198.458731,49.3303558 C198.770513,48.663818 199.429938,48.2653799 200.125521,48.3799828 L200.18272,48.3891866 C200.878896,48.5031958 201.409399,49.0940244 201.535357,49.8333023 C201.28196,49.8333023 201.054643,50.1019957 201.005446,50.4787603 L200.991516,50.5797058 L201.418587,50.6488833 C201.424514,50.7539854 201.463635,50.846321 201.521131,50.8979813 L200.82792,56.1937649 L200.763607,56.1827796 C200.514063,56.1418076 200.269261,56.3846708 200.192501,56.7314486 L197.981574,56.3716072 C197.988687,56.1774354 197.944231,55.9954365 197.855024,55.8606444 C197.778856,55.7478229 197.683721,55.6813176 197.5711,55.6638006 L197.50827,55.6519246 L198.201481,50.3549535 Z M194.813666,55.8541127 C194.829373,55.495162 194.658071,55.1869811 194.40497,55.1471967 L194.343325,55.1353207 L195.03624,49.840131 C195.10648,49.8092535 195.165458,49.7335443 195.198355,49.6337863 L195.623351,49.7044482 L195.635799,49.6017213 C195.666028,49.3742968 195.623351,49.1534041 195.518436,48.9960478 C195.442861,48.8864921 195.347133,48.8173147 195.236291,48.7997977 L195.221176,48.7977194 C195.489984,48.1249467 196.030565,47.7122574 196.585371,47.8037023 L196.633087,47.8111247 C197.188189,47.9019757 197.600145,48.47024 197.684907,49.200611 C197.578806,49.1866568 197.472112,49.2208001 197.374606,49.2982907 C197.234423,49.4161595 197.136324,49.6147848 197.10728,49.8419124 L197.093647,49.9425611 L197.51805,50.0123323 C197.524866,50.1183251 197.562802,50.2094731 197.62178,50.2599459 L196.928568,55.5560263 L196.864849,55.5468224 C196.614415,55.5067411 196.369316,55.7478229 196.293149,56.0951945 L194.813666,55.8541127 Z M196.065833,61.1205032 C196.071167,61.226793 196.109992,61.3179409 196.168377,61.3687106 L195.911127,63.3353681 C195.889788,63.3050845 195.868746,63.2727225 195.847407,63.2433295 C195.206061,62.3653998 194.530632,61.5403181 193.857277,60.7606619 L194.170541,60.813213 L194.184767,60.710486 C194.236632,60.3126417 194.05466,59.9528003 193.783777,59.90975 L193.768959,59.9055934 C194.035989,59.2343053 194.576866,58.821616 195.131375,58.9103887 L195.180869,58.9189988 C195.735379,59.009256 196.147038,59.5787079 196.2318,60.3090789 C195.963585,60.273451 195.703964,60.5563955 195.653581,60.9491926 L195.639651,61.0510289 L196.065833,61.1205032 Z M205.285634,79.8286892 C205.173013,79.9266658 205.084102,80.0810531 205.042906,80.2716621 L204.07081,80.1134151 L202.83109,79.911227 C202.839982,79.7173521 202.796119,79.5332749 202.706615,79.3967014 C202.63104,79.2859582 202.533534,79.2179684 202.422691,79.2001544 L202.361046,79.1888723 L203.053072,73.8919012 C203.123905,73.8625082 203.182883,73.786799 203.215483,73.6885255 L203.641072,73.7591874 L203.654705,73.6552728 C203.683749,73.4281453 203.641072,73.2087371 203.53586,73.0516776 C203.476882,72.9620142 203.40279,72.9026344 203.31862,72.8708662 C203.628328,72.2031409 204.289531,71.8047027 204.984817,71.9193057 L205.042906,71.9285095 C205.074321,71.9341506 205.099513,71.9513707 205.129743,71.959387 C205.349946,72.0089691 205.549997,72.1087271 205.726337,72.2429253 C205.4762,72.6968836 205.270815,73.2927594 205.247995,74.0453978 C205.200575,75.3556121 205.246809,78.0671887 205.285634,79.8286892 L205.285634,79.8286892 Z M203.82986,62.3858858 C203.837566,62.4927694 203.875501,62.5833235 203.932997,62.6352808 L203.242157,67.9310643 L203.176362,67.9215636 C202.913185,67.8779195 202.658603,68.1472067 202.59429,68.5251588 L200.421892,68.1712555 C200.458642,67.7832088 200.287043,67.4503852 200.018235,67.4058504 L199.955404,67.3957558 L200.647726,62.0999723 C200.717077,62.0696886 200.776055,61.9954639 200.809841,61.8942215 L201.236319,61.9639927 L201.249359,61.8624533 C201.29826,61.4886577 201.141776,61.1490055 200.897567,61.0718118 C201.206978,60.4034927 201.867885,60.009508 202.561689,60.1232202 L202.620667,60.1324241 C203.316249,60.2458394 203.844975,60.8354804 203.972118,61.5747584 C203.874019,61.5679297 203.775921,61.6005886 203.687306,61.6745164 C203.547419,61.7914945 203.448727,61.9874477 203.418794,62.2160597 L203.406346,62.3184898 L203.82986,62.3858858 Z M211.705916,69.3116437 L211.6419,69.301846 L212.336593,64.004578 C212.405055,63.9754819 212.464922,63.9003665 212.498708,63.8000147 L212.924296,63.8691921 L212.936448,63.767059 C212.966381,63.5423066 212.924296,63.3217108 212.819678,63.1646513 C212.754772,63.0684561 212.674456,63.0084826 212.581988,62.9793865 C212.892881,62.3107704 213.553492,61.9147075 214.247889,62.0278259 L214.307163,62.0376236 C215.001856,62.1513358 215.532953,62.7427582 215.659503,63.4799578 C215.40166,63.4731292 215.168417,63.7439009 215.119219,64.1245251 L215.106475,64.2269552 L215.531471,64.2961326 C215.537398,64.4009379 215.57563,64.4917889 215.634608,64.5425586 L214.941397,69.841608 L214.876788,69.8300289 C214.768612,69.8119181 214.657473,69.844577 214.557596,69.9274117 C214.425711,70.0393426 214.331169,70.2216384 214.295604,70.4333273 L212.111055,70.0776425 C212.146323,69.6943462 211.970871,69.3555847 211.705916,69.3116437 L211.705916,69.3116437 Z M220.003114,76.4250415 C220.009931,76.5331127 220.049052,76.6221823 220.106548,76.6741396 L219.413633,81.9702201 L219.350209,81.9598286 C219.097998,81.9197473 218.854381,82.1623136 218.777917,82.5120603 L217.760476,82.3455001 C217.770256,82.1510314 217.726394,81.9690325 217.634222,81.8312714 C217.559833,81.7208251 217.46292,81.6534291 217.352077,81.6344275 L217.290728,81.6240361 L217.982754,76.326768 C218.051809,76.297672 218.110787,76.2222597 218.145166,76.1222048 L218.569865,76.1916791 L218.583794,76.089249 C218.614321,75.8621215 218.57105,75.643604 218.46495,75.4853569 C218.396192,75.3808485 218.303428,75.3146401 218.201476,75.2935603 C218.43472,74.6157404 218.880462,74.1864247 219.327093,74.2567898 L219.364139,74.2656967 C219.800397,74.3348741 220.123737,74.898388 220.174713,75.6148048 C220.067723,75.5990691 219.95777,75.6323218 219.861153,75.7124845 C219.719191,75.8294626 219.619907,76.0274941 219.592344,76.2546216 L219.578119,76.3567548 L220.003114,76.4250415 Z M160.529188,101.263 L159.01088,101.250233 C159.453362,100.568257 159.992164,99.6731067 160.092041,99.2161795 C160.214739,98.6787927 160.133237,97.5787827 159.873912,96.8107056 C160.568309,97.2005337 160.560902,98.1357648 160.560902,98.1357648 L160.529188,101.263 Z M76.4434401,92.4094781 C76.031781,91.4626678 75.6296057,90.5105135 75.2410635,89.5559839 C75.9191601,89.6744465 76.4434401,90.4309446 76.4434401,91.3510339 L76.4434401,92.4094781 Z M67.9651589,93.9589928 C67.2894333,93.8725952 66.6098549,93.7980737 65.9287947,93.7283024 L65.9287947,92.8696712 L65.7145186,92.8696712 L65.5538856,91.8174619 L65.344055,90.4448988 L65.1345208,91.8174619 L65.0346438,92.4804369 L65.0346438,89.6946356 C65.0346438,88.7065565 65.6922908,87.9067112 66.4990122,87.9067112 C66.9752802,87.9067112 67.397016,88.1843115 67.6646388,88.6124396 C67.7639231,89.0631319 67.8643928,89.5096677 67.9651589,89.9455151 L67.9651589,93.9589928 Z M65.1635651,81.2852746 L66.1771535,81.2852746 C66.1771535,81.2852746 66.2053087,81.4355054 66.255099,81.6988546 L65.1635651,81.6988546 L65.1635651,81.2852746 Z M63.185586,92.9557718 C63.185586,93.1386615 63.1654328,93.3173945 63.1269046,93.4848454 C62.1272457,93.4180432 61.1284759,93.3634138 60.1311879,93.3236294 C60.1116274,93.2048699 60.1030327,93.0819538 60.1030327,92.9557718 L60.1030327,89.7644068 C60.1030327,88.6839922 60.7938732,87.8096253 61.6441612,87.8096253 C62.4956347,87.8096253 63.185586,88.6839922 63.185586,89.7644068 L63.185586,92.9557718 Z M57.9454528,93.1852746 C57.9454528,93.2116986 57.9430818,93.2345598 57.9413036,93.2621714 C57.6182594,93.2565303 57.2975861,93.254452 56.9757274,93.2511861 C57.2068966,92.3616774 57.5658017,90.9603151 57.9454528,89.409019 L57.9454528,93.1852746 Z M49.7745082,91.5873653 L49.7745082,89.4770088 C49.7745082,88.4084701 50.4505301,87.5433071 51.2889633,87.5234148 C51.2984471,87.5234148 51.3067455,87.519852 51.3153403,87.519852 C51.3520903,87.519852 51.3879511,87.5234148 51.4241084,87.5266807 C50.9024957,88.8826174 50.3503567,90.2394449 49.7745082,91.5873653 L49.7745082,91.5873653 Z M48.001914,92.6683738 C48.001914,92.9634912 47.9482709,93.2431698 47.8552105,93.4931586 C47.4456259,93.5178012 47.0413761,93.5451159 46.6392008,93.5727275 L46.6392008,93.3283798 L46.429963,93.3283798 L46.2731828,92.2025396 L46.0630559,90.7391255 L45.8582636,92.2025396 L45.7000016,93.3283798 L45.4872073,93.3283798 L45.4872073,93.6576405 C45.3728081,93.6662506 45.2563344,93.6742669 45.142528,93.6831738 C45.0020482,93.3865719 44.9202498,93.0400911 44.9202498,92.6683738 L44.9202498,89.4770088 C44.9202498,88.3962972 45.6081266,87.519852 46.461971,87.519852 C47.3110736,87.519852 48.001914,88.3962972 48.001914,89.4770088 L48.001914,92.6683738 Z M43.0676356,93.1466777 C43.0676356,93.4029014 43.0285146,93.6466553 42.9582747,93.870517 C42.0181863,93.9581021 41.1080314,94.052219 40.2298846,94.1475235 L40.2298846,93.2324815 L40.0221286,93.2324815 L39.9838968,92.9685385 L39.9838968,89.9570941 C39.9838968,88.8766795 40.6774046,88.0014219 41.5265071,88.0014219 C42.3785733,88.0014219 43.0676356,88.8766795 43.0676356,89.9570941 L43.0676356,93.1466777 Z M38.7524758,94.0103563 C38.7524758,94.1169429 38.7432883,94.2211544 38.7311371,94.3209124 C37.6796133,94.4465006 36.6897346,94.5759485 35.7695031,94.7030211 C35.7066725,94.4880664 35.6690334,94.2561885 35.6690334,94.0103563 L35.6690334,90.819882 C35.6690334,89.740358 36.3595775,88.8651004 37.2107546,88.8651004 C38.0610426,88.8651004 38.7524758,89.740358 38.7524758,90.819882 L38.7524758,94.0103563 Z M37.0065551,80.8037047 L38.3411131,80.6751476 L38.3411131,82.8493373 L37.0065551,82.9790821 L37.0065551,80.8037047 Z M45.9448039,81.122574 L47.3324123,81.122574 L47.3324123,78.946306 L45.9448039,78.946306 L45.9448039,81.122574 Z M34.6978261,91.3807238 L34.4690278,94.5599159 C34.4622112,94.6777847 34.4441326,94.7876373 34.4213121,94.896896 C34.3569996,94.9063968 34.297429,94.9156007 34.2340057,94.9248045 L34.2340057,94.8770038 L33.828274,94.8770038 L33.828274,93.3283798 L33.620518,93.3283798 L33.459885,92.2025396 L33.2542036,90.7391255 L33.0437803,92.2025396 L32.888482,93.3283798 L32.678355,93.3283798 L32.678355,94.8770038 L32.2705487,94.8770038 L32.2705487,95.2291258 C32.033452,95.2674257 31.8046537,95.3054288 31.5874139,95.3422442 C31.4401176,95.0120928 31.370174,94.6237492 31.3992184,94.2175916 L31.6256457,91.0407747 C31.7032949,89.9657042 32.4531132,89.1694217 33.3010302,89.2626479 C34.14954,89.3564679 34.7748825,90.3053564 34.6978261,91.3807238 L34.6978261,91.3807238 Z M30.8657508,84.6420122 L29.887727,84.9323792 L30.0934084,82.8828869 L31.122408,82.466041 L30.8657508,84.6420122 Z M25.315021,86.977418 L24.773255,87.1362588 L24.8778739,85.3456623 L25.4673556,85.0250116 L25.315021,86.977418 Z M12.1543765,70.8142484 C12.0201205,70.8142484 11.8864572,70.7994035 11.7548686,70.7913872 C8.04430538,70.5523837 5.09808265,67.043337 5.09808265,62.7353357 C5.09808265,58.4270375 8.04430538,54.9156156 11.7548686,54.6777997 C11.8864572,54.6706741 12.0201205,54.6561261 12.1543765,54.6561261 C16.0486896,54.6561261 19.2112631,58.2747284 19.2112631,62.7353357 C19.2112631,67.1974275 16.0486896,70.8142484 12.1543765,70.8142484 L12.1543765,70.8142484 Z M228.293793,114.821179 L221.982279,114.838696 L221.812755,101.692612 L229.092216,101.692612 C229.092216,101.692612 229.753419,101.150772 229.092216,100.458107 L219.533663,94.8280155 C219.572784,94.7579474 219.60005,94.6795661 219.611312,94.5955438 C219.61398,94.5667446 219.615165,94.5370547 219.615165,94.506771 C219.615165,94.3770263 219.578119,94.2505474 219.509064,94.1457421 C219.420746,94.0157005 219.294788,93.9298967 219.151048,93.90852 L219.012643,93.8844712 C219.024202,93.5308647 218.852603,93.2274342 218.603948,93.1858684 L218.540821,93.1760707 L219.232847,87.8799903 C219.302197,87.8497066 219.362657,87.775185 219.395554,87.6739425 L219.82055,87.7434168 L219.834479,87.6412837 C219.863227,87.4150468 219.822328,87.1950448 219.716524,87.0373915 C219.641838,86.9260545 219.545814,86.8577678 219.434675,86.8402507 L219.416004,86.836688 C219.519437,86.5383047 219.665844,86.2811903 219.845742,86.094441 L219.868562,86.0692046 L220.145076,83.9615202 L220.445893,84.0099147 C220.589336,84.0339635 220.733372,83.994179 220.849253,83.8964993 C220.963949,83.7997103 221.042487,83.6577927 221.062937,83.4968736 C221.067382,83.4683713 221.068568,83.4363062 221.068568,83.4083977 C221.068568,83.2777623 221.030929,83.152471 220.961281,83.0476657 C220.874445,82.9170303 220.74582,82.8330079 220.602376,82.8098498 L220.466046,82.7881762 C220.474937,82.5940044 220.431963,82.4093333 220.340977,82.2718692 C220.265403,82.1623136 220.167008,82.0940268 220.056461,82.0750253 L219.994223,82.0652277 L220.686546,76.7676627 C220.756193,76.7388636 220.816356,76.6637482 220.849253,76.5630995 L221.274545,76.6337614 L221.288179,76.5331127 C221.318408,76.3053913 221.274545,76.0844986 221.170816,75.928033 C221.095241,75.8149145 220.998328,75.7469247 220.887189,75.7305953 L220.868221,75.7264387 C220.973136,75.4283523 221.119247,75.1706442 221.298255,74.9841918 L221.322558,74.9598461 L221.596701,72.8497864 L221.899888,72.9002592 C222.042739,72.924308 222.187071,72.8848205 222.301767,72.786547 C222.41913,72.6906487 222.496186,72.5466528 222.516339,72.387515 C222.519007,72.3569345 222.521674,72.3269477 222.521674,72.2972578 C222.521674,72.1692944 222.484924,72.0425186 222.413499,71.9377134 C222.326958,71.8073748 222.199519,71.7230556 222.055779,71.6978192 L221.922116,71.67763 C221.958866,71.293443 221.781932,70.9552753 221.51757,70.9137095 L221.454443,70.9036149 L222.147654,65.60605 C222.217598,65.5757663 222.277168,65.5000571 222.309176,65.4002991 L222.735061,65.4709611 L222.748991,65.3682341 C222.778331,65.1422941 222.735061,64.9214014 222.631035,64.7649358 C222.556646,64.6535987 222.457954,64.5856089 222.347408,64.5669043 L222.329626,64.5633415 C222.434541,64.2646613 222.580355,64.0084377 222.758178,63.8210945 L222.781888,63.7973426 L223.058105,61.6884706 L223.359514,61.737162 C223.504736,61.7615077 223.646698,61.7205357 223.763172,61.6234498 C223.880238,61.5266608 223.954627,61.3838524 223.975966,61.2244178 C224.01894,60.8930788 223.813555,60.5840071 223.518666,60.5362064 L223.379964,60.5145328 C223.393893,60.1549884 223.222295,59.845323 222.971269,59.8049447 L222.908438,59.7960378 L223.602242,54.4975821 C223.669815,54.4661109 223.730274,54.3915893 223.763172,54.2942065 L224.189353,54.3636808 L224.203282,54.2615476 C224.254851,53.8634064 224.074657,53.503565 223.801107,53.4593271 L223.783028,53.456655 C223.887055,53.1573811 224.032869,52.9011574 224.213359,52.7138143 L224.236772,52.6888748 L224.511804,50.5811903 L224.814399,50.6301786 C224.956953,50.6533367 225.101582,50.6126616 225.218056,50.5164664 C225.333048,50.4193805 225.409512,50.2765722 225.428776,50.1156531 C225.433814,50.0859632 225.436185,50.0565702 225.436185,50.0262865 C225.436185,49.8980262 225.399435,49.7709536 225.329195,49.6649607 C225.240877,49.5364035 225.111659,49.4520843 224.969697,49.4292231 L224.831292,49.4063619 C224.838701,49.2148622 224.794246,49.0376136 224.70652,48.9060874 C224.630353,48.7935628 224.534921,48.7252761 224.423782,48.7065714 L224.361841,48.6958831 L225.052978,43.3995058 C225.122625,43.3689252 225.181306,43.2944036 225.215982,43.1946456 L225.64157,43.2641199 L225.654018,43.1628774 C225.683358,42.9357499 225.64157,42.7151541 225.535469,42.5592822 C225.462858,42.4470545 225.364463,42.3787677 225.253621,42.3597662 L225.141,42.3425461 C225.250953,42.0147698 225.413068,41.7374664 225.601264,41.5400287 L225.873628,39.4664876 L226.264542,39.530024 C226.410652,39.5549634 226.551429,39.515179 226.668495,39.4169055 C226.784969,39.3210072 226.860543,39.1793865 226.882179,39.0178736 C226.886624,38.9890744 226.887217,38.9593845 226.887217,38.9305853 C226.887217,38.6336865 226.692205,38.3747908 226.422211,38.3290684 L222.394235,37.6723283 C222.412906,37.262608 222.222339,36.9113767 221.942565,36.8531846 L223.466801,25.1999074 C223.485472,25.1930788 223.500587,25.1889222 223.500587,25.1889222 C223.580311,25.1236045 223.639585,25.0205806 223.672482,24.9018211 L224.060728,24.9650605 L224.074657,24.8629273 C224.109629,24.5989843 224.059246,24.3439483 223.938327,24.1592772 C223.853565,24.0351735 223.741537,23.9556047 223.616764,23.9366031 L223.253414,23.8775203 L223.606984,21.1935553 L224.032869,21.261842 C224.553593,21.3479427 225.039345,20.9456448 225.115808,20.3622387 C225.132109,20.2212118 225.124699,20.0822632 225.095655,19.9498463 L212.154918,17.8403805 L199.192842,15.7273519 C199.129418,15.8422517 199.087334,15.9722934 199.067477,16.1145079 C198.991013,16.6970233 199.352289,17.2373791 199.874495,17.322589 L200.298305,17.3920633 L199.945031,20.0763252 L199.637991,20.0255555 C199.323838,19.974192 199.021539,20.3070155 198.959005,20.7672087 L198.94715,20.8693418 L199.3351,20.9319875 C199.3351,21.0798431 199.379259,21.2104785 199.452166,21.2998451 L197.931487,32.9361989 C197.648453,32.9020556 197.374606,33.1796559 197.289252,33.5777972 L193.210003,32.9121501 C192.913632,32.8640525 192.637711,33.0938522 192.593552,33.4263788 C192.573695,33.5867042 192.609852,33.7464357 192.696096,33.8761805 C192.784118,34.0068159 192.90889,34.0908383 193.05263,34.1131057 L193.342185,34.1615002 L193.076043,36.1973351 C193.221562,36.4538557 193.311955,36.7863823 193.336553,37.1557244 L193.298025,37.1500833 C193.025068,37.1055485 192.761298,37.3920558 192.709136,37.790494 L192.696096,37.8905489 L193.120795,37.960617 C193.127019,38.0654223 193.16614,38.157164 193.223933,38.2094182 L192.531907,43.5063893 L192.46878,43.4942165 C192.356159,43.4761056 192.246798,43.5105459 192.147217,43.5930838 C192.02778,43.6931386 191.939461,43.850495 191.897377,44.0348691 L191.758675,44.0131955 C191.462897,43.9639103 191.185197,44.19371 191.141038,44.5244552 C191.121181,44.6850775 191.156449,44.8451059 191.244768,44.97396 C191.332494,45.1048923 191.457562,45.1892116 191.601006,45.2129635 L191.798389,45.2447317 L191.526913,47.3170852 L191.546177,47.3500409 C191.680729,47.5911227 191.765492,47.9058354 191.788905,48.2451907 C191.698512,48.2443 191.607822,48.2769589 191.524542,48.3464332 C191.384951,48.4610362 191.287445,48.6596614 191.256919,48.8885704 L191.243879,48.989516 L191.669171,49.0595841 C191.675988,49.1652801 191.71333,49.2558342 191.771715,49.3066039 L191.080875,54.603575 L191.01597,54.5934805 C190.904831,54.5762603 190.794284,54.6098099 190.695,54.6920508 C190.574081,54.7926995 190.486059,54.9539156 190.442788,55.1421494 L190.306458,55.1189913 C190.008901,55.0702999 189.732091,55.3018809 189.688228,55.6320324 C189.646143,55.9630745 189.852714,56.27274 190.147603,56.3214314 L190.346764,56.354684 L190.285415,56.8228934 C189.367851,55.7929515 188.65093,54.8906761 188.313067,54.1074571 C187.407654,51.9878968 187.525314,45.9578825 187.525314,45.9578825 C187.525314,45.9578825 187.474634,41.0881487 185.51177,39.51221 L185.457534,36.259387 C185.457534,36.259387 185.207101,36.1263763 185.067214,36.0613555 L185.067214,36.0328532 C184.927623,36.0972803 184.67304,36.2326661 184.67304,36.2326661 L184.619397,39.4854891 C182.656237,41.0608341 182.605261,45.9311616 182.605261,45.9311616 C182.605261,45.9311616 182.722624,51.9617697 181.817507,54.0810332 C180.904685,56.1955463 177.235317,59.1755193 174.283167,63.2163117 C172.544359,65.5995182 171.311457,71.1898254 170.859787,73.4848529 C170.858898,73.4854467 170.858009,73.4857436 170.85712,73.4863374 C170.728791,74.1418899 170.723457,74.1647511 170.723457,74.1647511 C170.723457,74.1647511 170.452277,74.4310693 169.832566,74.9583616 C169.211076,75.4859507 169.712536,77.699628 169.712536,77.699628 L169.418832,80.4447541 C169.418832,80.4447541 168.873213,81.4978541 168.347452,81.9390457 C168.053748,82.1783461 167.965429,83.0209448 167.946165,83.7394399 C167.933125,84.2126965 167.950611,84.6310269 167.95802,84.789274 C167.960391,84.8320274 167.962169,84.8611235 167.962169,84.8611235 C167.959502,84.8590452 167.958909,84.8563731 167.956835,84.853701 C167.501905,84.1022502 166.782021,83.3113118 166.144527,82.6804019 C166.168533,82.5447192 166.189575,82.4084427 166.218916,82.2733537 C166.379549,81.5284347 166.732527,80.8601155 167.025341,80.1861553 C167.516131,79.0493299 167.308968,78.0511562 167.122551,78.0968786 C167.01319,78.1253809 166.905904,78.1515079 166.78291,78.1764474 C166.755347,78.1814947 166.734305,78.1684312 166.68896,78.1473514 C166.637688,78.1253809 166.584341,77.9528827 166.57871,77.7548512 C166.573672,77.6375762 166.570412,77.5173322 166.570412,77.3959006 C166.567448,75.8962648 166.528327,74.393957 166.590269,72.8972902 C166.654285,71.3739026 166.555297,69.9226614 165.634473,68.621354 C165.508811,68.4449961 165.563344,68.0236968 165.689005,67.8054762 C166.180091,66.9619867 166.371251,66.1974724 166.252702,65.491744 C166.03161,64.1678723 163.884995,64.0995856 163.592181,65.3661558 C163.423842,66.0971206 163.562248,66.8889496 164.049778,67.6041788 C164.406015,68.122861 164.413425,68.5022976 164.081193,68.9823829 C163.615298,69.6545618 163.387389,70.3792917 163.307961,71.1571665 C162.487607,71.8397368 161.977849,73.5445296 161.977849,73.5445296 L161.447049,81.3122924 C161.447049,81.3122924 159.284134,82.1735957 156.880567,86.340867 C156.142899,87.61961 155.684414,89.1821883 155.399305,90.6366954 L155.399305,75.9693019 C155.399305,75.9693019 156.282787,74.6406799 156.187948,74.0103638 C156.108224,73.3948926 156.108224,72.4154235 156.187948,72.1455425 C156.271228,71.8839747 157.431224,69.3015491 157.340238,68.8538258 C157.256661,68.4167907 158.852322,69.2142609 158.852322,69.2142609 C158.852322,69.2142609 159.034294,67.9690674 158.587366,67.6193206 C158.143996,67.2624483 156.278934,66.1915344 157.06728,65.8423814 C157.870742,65.4852122 159.030737,66.0169579 159.030737,66.0169579 C159.030737,66.0169579 159.030737,64.8703348 158.226979,64.6081732 C157.431224,64.3347294 157.787758,63.2676752 156.892718,63.0058105 C156.001827,62.7400861 154.937263,63.3626828 154.141211,63.1046778 C153.344862,62.831234 153.163187,62.1249118 152.556516,61.4108702 C151.92732,60.704548 151.222254,60.0819513 151.222254,60.0819513 C151.222254,60.0819513 153.375092,58.8970283 153.258025,57.8911352 C153.140366,56.8846483 151.84404,55.342853 151.487506,53.9302086 C151.135121,52.5024223 151.36629,50.9683463 150.957002,50.3231853 C150.540008,49.6697111 150.013357,49.1382623 150.013357,49.1382623 L150.069964,47.9533392 C150.069964,47.9533392 151.669774,48.8461139 152.200278,49.0699755 C152.730782,49.309276 153.200826,50.5583291 153.383094,50.4368975 C153.55736,50.3231853 153.443554,48.9556695 153.07961,48.6596614 C152.730782,48.3636534 151.487506,47.7181954 150.957002,47.2395946 C150.418496,46.7687131 150.126571,45.9412562 150.126571,45.5309421 C150.126571,45.1132055 150.013357,44.4068833 149.656823,44.1601604 C149.296733,43.9282825 149.09194,43.8754345 148.830541,43.6399938 C148.565289,43.3965368 149.182926,42.7207951 149.182926,42.2499137 C149.182926,41.7716097 148.887148,41.2092835 148.174376,41.2092835 C148.162225,41.2092835 148.151556,41.2125493 148.139404,41.2131431 C147.480572,41.2523338 147.529473,42.3386864 147.477312,42.6296472 C147.409147,42.9256553 147.587265,43.3436888 146.942955,43.0396644 C146.290939,42.7436563 145.339589,43.9282825 144.816494,43.457401 C144.285694,42.9868164 143.452003,43.108248 143.103174,43.2751052 C142.74664,43.457401 142.451158,44.1108752 142.451158,44.1108752 C142.451158,44.1108752 142.864299,45.416933 143.277737,45.7663828 C143.683172,46.1158327 144.285694,46.1841194 144.285694,46.1841194 C144.285694,46.1841194 145.051516,45.1737729 145.760139,45.3486462 C146.461353,45.5309421 146.643621,46.8292805 146.355252,47.1255854 C146.052064,47.4218904 146.112524,48.0142035 146.355252,48.4242207 C146.582568,48.8380976 146.287086,50.3193256 146.23374,51.03693 C146.165871,51.7355328 144.93771,53.1027517 145.169176,53.6873454 C145.400345,54.2796584 145.991308,54.9937 146.172984,55.4037172 C146.355252,55.8175941 146.237593,57.5948302 145.934702,58.0695714 C145.646629,58.5401559 144.816494,59.3756291 144.40691,59.3756291 C143.989916,59.3756291 143.398952,58.0695714 143.573218,57.7729695 C143.754894,57.4769614 142.632834,58.4187243 142.632834,58.8970283 C142.632834,59.3756291 142.329646,60.0213839 142.329646,60.0213839 C142.329646,60.0213839 142.038017,60.0819513 141.677927,60.6742644 C141.321393,61.2588581 141.442608,62.0869088 141.677927,62.6792218 C141.920655,63.2718318 141.624876,64.0422841 141.268046,64.520885 C140.915957,64.9920633 140.44206,64.520885 139.972016,65.1666398 C139.505825,65.8195202 138.971172,66.7574235 138.497867,66.943579 C138.023674,67.1145927 138.08443,68.6032432 138.319452,69.1878369 C138.554474,69.7801499 139.32,71.2536586 139.141881,71.6710983 C138.971172,72.0888349 139.32,72.7951571 139.505825,72.977156 C139.676534,73.1520294 139.972016,73.9189189 140.032772,74.2078015 C140.097085,74.5192483 140.741691,75.5744265 140.741691,75.5744265 L140.741691,86.6632991 L139.633561,86.9943412 L139.203823,84.8174794 L138.805204,87.0658938 C138.451337,86.8681592 138.096285,86.675175 137.743604,86.487535 C136.848564,86.0116062 135.591062,85.7589454 134.383054,85.7598361 C133.801871,85.760133 133.235506,85.8227786 132.722785,85.9445071 L131.367185,81.5551556 L130.929445,83.4523388 L130.216673,82.184581 L129.924748,83.2397592 L129.20753,81.1780941 L128.71674,82.1269826 L126.805148,80.6154709 L124.751594,76.5815072 L124.751594,75.6418226 L124.220794,71.7227587 L124.220794,66.283573 L123.947244,66.283573 L123.928869,66.283573 L123.928869,71.771747 L123.353316,75.5218755 L123.353316,76.5764599 L121.225077,80.6418949 L121.225077,85.2432322 L119.003481,84.9730543 L117.021057,87.9871707 L113.202022,89.206534 L111.945706,90.6334296 L110.644341,91.6399164 L110.206601,92.3269402 L109.773011,92.5353631 L109.773011,94.8582992 L108.993852,95.2306103 L108.370288,95.2306103 L107.59587,95.7626529 L106.89851,99.1903493 C106.846941,98.745298 106.814637,98.2854018 106.810488,97.7975971 C106.793891,95.5058354 106.802782,93.2093234 106.840125,90.9163741 C106.84783,90.379878 107.000165,89.7005736 107.340399,89.3318253 C107.658108,88.986532 107.775768,88.6323318 107.809554,88.2718967 C107.87031,87.6219852 107.455983,87.1312115 107.062107,87.1778247 C106.66823,87.2232502 106.309621,86.1318503 106.17655,84.742364 C106.095641,83.9030311 106.025698,83.0639952 106.070153,82.2199119 C106.114313,81.3995806 106.26724,80.6893987 106.567167,79.9293378 C106.62822,79.7755443 107.494215,77.4846733 107.06507,77.5752274 C106.887248,77.6126367 106.724244,77.6479676 106.557683,77.6818141 C106.278502,77.7411938 106.041109,76.4247446 106.034885,74.7383596 C106.03044,73.7149495 106.034885,72.6995556 106.071635,71.686537 C106.112831,70.5339759 105.922264,69.4871109 105.267581,68.5444572 C104.935053,68.0634812 104.943351,67.6852322 105.296329,67.1659562 C105.785934,66.4504301 105.92345,65.6600856 105.754518,64.9273394 C105.461408,63.6607692 103.315386,63.7293528 103.093404,65.0538183 C102.976338,65.7607343 103.166904,66.5243579 103.657398,67.3693319 C103.782763,67.5863649 103.835221,68.0061797 103.711041,68.1837252 C102.788439,69.4844388 102.687673,70.9359769 102.749911,72.4590676 C102.813334,73.9554375 102.764729,75.4589329 102.760284,76.9579749 C102.760284,77.0797034 102.75406,77.1984629 102.74665,77.3169255 C102.73361,77.5140663 102.67315,77.6895334 102.614173,77.7120978 C102.563197,77.7305055 102.532374,77.7426783 102.504219,77.7382248 C102.257342,77.6895334 102.014022,77.6328258 101.767145,77.5767119 C101.638223,77.547022 102.442278,81.5996904 102.456207,81.8190986 C102.514888,82.7421569 102.470433,83.6652152 102.397526,84.5873828 C102.27631,86.1134425 101.717947,87.3016314 101.150101,87.2288912 C100.58255,87.156151 100.060641,87.7199618 100.378647,88.4022352 C100.554099,88.7769215 100.827056,89.1311217 101.228046,89.4544445 C101.592286,89.7498588 101.998314,90.4490554 102.006612,90.9677376 C102.063219,94.2971605 102.227112,97.4356775 101.789373,100.625261 C101.226268,100.73927 100.720067,100.801619 100.387538,100.554599 C99.581706,99.9426908 99.1703433,100.14666 98.9756276,101.365727 C98.7723172,102.58034 98.7456438,104.078788 97.9623356,103.777435 C97.2492674,103.514383 96.5367918,103.328228 95.9636106,103.2543 L95.9716126,97.3834233 L96.1698847,97.2854467 L96.1698847,92.9150967 L95.7745259,92.2301512 L95.7745259,88.3850151 L95.6808728,88.3850151 C95.4843789,87.698882 94.9286835,87.1499162 94.2123551,86.9242731 L93.9174661,85.7441004 L93.4779481,83.9909132 L93.0354664,85.7441004 L92.7432448,86.9242731 C92.10012,87.1223046 91.5865093,87.5884357 91.3458562,88.1789673 L91.0936446,88.1789673 L91.0936446,81.7819862 L90.3968767,81.7819862 L90.3968767,78.2102939 L89.9105321,78.2102939 L89.5981572,76.6560288 L89.0086755,73.6953542 L88.4194903,76.6560288 L88.1088936,78.2102939 L87.6178071,78.2102939 L87.6178071,81.7819862 L86.9237065,81.7819862 L86.9237065,88.1789673 L85.4347393,88.1789673 L85.4347393,91.2524635 L83.6645162,92.3649432 L83.6645162,97.2854467 L82.4929622,97.2854467 L82.4929622,96.2091886 L81.8788817,96.2091886 L81.6488979,95.42211 L81.3969827,94.5798081 L81.1533659,95.42211 L80.9189365,96.2091886 L80.3110799,96.2091886 L80.3110799,96.8947279 L79.667066,96.6990716 L79.667066,94.0985352 L78.8813868,94.0985352 L78.8813868,92.9661633 L78.666518,92.9661633 L78.5079596,91.8717944 L78.2954616,90.4448988 L78.0841492,91.8717944 L77.9279618,92.9661633 L77.7990405,92.9661633 L77.0352927,90.1432497 L77.3432221,89.6331776 L77.1381334,88.9292306 L77.5483107,87.7775602 L76.6224481,87.393967 L76.4698171,86.0499062 L75.3898417,85.6012921 C75.1334809,83.8730443 72.7690342,77.9240835 72.7690342,77.9240835 L72.2560162,77.0933607 L72.5639456,75.9387213 C72.1030889,75.7492999 71.6324519,75.5744265 71.156184,75.408757 L71.2468734,75.408757 C71.8387261,75.408757 72.3164759,73.5908458 72.3164759,73.5908458 C72.3164759,73.0694915 71.8387261,72.6464108 71.2468734,72.6464108 L70.3408677,72.6464108 C69.2445919,65.74678 65.0607245,37.9644767 65.2112809,17.0654747 L65.3508715,17.0654747 C65.9397604,17.0654747 66.4172139,13.2642796 66.4172139,13.2642796 C66.4172139,12.8530748 66.1187684,12.5027342 65.6988109,12.3718019 C65.7743855,12.2444323 65.8161738,12.0974674 65.8161738,11.9418924 L65.8161738,11.2821833 C65.8161738,10.7626105 65.338424,10.3410142 64.7501278,10.3410142 L64.4039666,10.3410142 C64.4596843,10.2427407 64.4934706,10.1325913 64.4934706,10.0165038 C64.4934706,9.64775555 64.154126,9.34640328 63.7312048,9.34640328 L63.411717,9.34640328 L63.411717,5.02771363 C63.411717,4.85491854 63.2979106,4.70765675 63.1331284,4.64204211 L63.1331284,-0.000267208902 L62.9422655,-0.000267208902 L62.8376466,-0.000267208902 L62.7303604,-0.000267208902 L62.7303604,4.64204211 C62.5664673,4.70765675 62.4508827,4.85491854 62.4508827,5.02771363 L62.4508827,9.34640328 L62.1296166,9.34640328 C61.7093628,9.34640328 61.3685363,9.64775555 61.3685363,10.0165038 C61.3685363,10.1325913 61.4008407,10.2427407 61.4571512,10.3410142 L61.1160283,10.3410142 C60.5235829,10.3410142 60.0443513,10.7626105 60.0443513,11.2821833 L60.0443513,11.9418924 C60.0443513,12.0974674 60.0893996,12.2444323 60.1643815,12.3718019 C59.7444239,12.5027342 59.4439039,12.8530748 59.4439039,13.2642796 C59.4439039,13.2642796 59.9243211,17.0654747 60.5152846,17.0654747 L60.6528006,17.0654747 C60.8018752,37.9644767 56.6177114,65.74678 55.5235101,72.6464108 L54.7022665,72.6464108 C54.2508937,72.6464108 53.8665006,72.8943212 53.7094241,73.2437711 C52.8763256,73.2666323 52.0669368,73.3022602 51.2889633,73.346795 C45.8876043,73.657648 41.989142,74.4052391 41.989142,74.4052391 L42.0404142,75.3009828 L41.6806199,75.6210396 L41.5777792,76.708283 L40.3454692,76.8997827 L36.439894,77.8593595 L35.0010135,76.2611534 C29.0027636,78.556181 25.141644,80.8393326 22.6687255,82.906045 L22.6453122,74.2357099 L23.575324,74.2357099 L23.575324,52.3020157 L22.6453122,52.3020157 L22.6453122,48.0911003 L22.4594877,48.0911003 L17.9137514,40.2277361 L17.8337313,40.2277361 L17.8337313,32.4118757 L17.7869047,32.4118757 L11.8390379,19.1330778 L11.8390379,15.2469696 L11.7548686,15.2469696 L11.7201932,15.2469696 L11.7201932,19.1698932 L5.79129409,32.4118757 L5.73854008,32.4118757 L5.73854008,40.3559964 L1.11485827,48.0911003 L0.935553898,48.0911003 L0.935553898,52.3020157 L-8.8911258e-05,52.3020157 L-8.8911258e-05,74.2357099 L0.935553898,74.2357099 L0.917771647,118.974199 C0.906509554,118.989341 0.899100282,119.00003 0.899100282,119.00003 L0.917771647,119.00003 L14.3952366,119.00003 L24.0996041,119.00003 L24.1120516,119.00003 L35.1649065,119.00003 L42.6195228,119.00003 L42.6319704,119.00003 L46.2841485,119.00003 L46.8090213,119.00003 L46.8196907,119.00003 L51.2889633,119.00003 L79.0432053,119.00003 L79.8522978,119.00003 L80.3905073,119.00003 L86.3866825,119.00003 L90.6988786,119.00003 L95.9416791,119.00003 L99.2310993,119.00003 L123.947244,119.00003 L128.902564,119.00003 L135.014028,119.00003 L139.238795,119.00003 L148.139404,119.00003 L161.934282,119.00003 L169.041848,119.00003 L170.732348,119.00003 L170.732348,118.963511 L171.64517,118.973012 L182.707213,118.911554 C182.700692,118.960542 182.696543,118.992013 182.695358,119.00003 L182.90341,119.00003 C182.90993,118.968855 182.920007,118.94065 182.928009,118.910366 L185.063657,118.89849 L185.063657,118.924914 L185.77228,118.929071 C185.778504,118.952526 185.786209,118.975387 185.791544,119.00003 L189.102896,119.00003 L189.110305,118.947479 L190.307051,118.954307 L190.301716,119.00003 L195.280746,119.00003 L195.283117,118.981919 L196.415254,118.988451 L196.413772,119.00003 L199.023318,119.00003 L199.024207,118.994092 L199.310501,118.99142 L201.318414,118.99142 L201.321377,118.970043 L202.439584,118.958167 L202.435435,118.99142 L204.54115,118.99142 L204.54115,119.00003 L217.279466,119.00003 L230,119.00003 L230,117.496534 L228.293793,114.821179 Z" id="Fill-1" fill="url(#linearGradient-6)" mask="url(#mask-5)"></path>
                        </g>
                        <polygon id="Fill-4" fill="#38A6B3" points="223 115 226 115 226 104 223 104"></polygon>
                        <polygon id="Fill-6" fill="#38A6B3" points="11.765349 64.6760068 7 66.006286 7.23616484 67 12.3749369 65.5642446 12.3749369 65.4213723 12.4967199 65.4712338 15 58.3627743 14.1199327 58"></polygon>
                    </g>
                </g>
                <path d="M98.0068356,59.6542368 L99.0166012,53.8534555 L85.4169919,53.8534555 L86.7275387,46.3983774 L98.2216794,46.3983774 L99.1884762,40.7909555 L87.6728512,40.7909555 L88.8330075,34.1952524 L102.454101,34.1952524 L103.463867,28.3729868 L82.4736325,28.3729868 L77.05957,59.6542368 L98.0068356,59.6542368 Z M113.540039,60.1054087 C117.206705,60.1627003 120.246744,59.1744191 122.660156,57.1405649 C125.073567,55.1067107 126.530924,52.3209034 127.032226,48.783143 L127.032226,48.783143 L130.512695,28.3729868 L123.165039,28.3729868 L119.68457,48.8046274 C119.040039,52.5572316 117.142252,54.3834034 113.991211,54.283143 C112.902669,54.2401743 112.061198,53.9250701 111.466797,53.3378305 C110.872396,52.7505909 110.539388,51.9270232 110.467773,50.8671274 C110.410481,50.2225962 110.424804,49.5422576 110.510742,48.8261118 L110.510742,48.8261118 L113.969726,28.3729868 L106.579101,28.3729868 L103.098632,48.8046274 C102.84082,50.9960337 103.109375,52.947531 103.904297,54.6591196 C104.699218,56.3707081 105.93457,57.6955779 107.610351,58.633729 C109.286132,59.57188 111.262695,60.0624399 113.540039,60.1054087 Z M137.086914,59.6542368 L139.020507,48.611268 L143.102539,48.611268 L146.540039,59.6542368 L154.381836,59.6542368 L154.381836,59.2890024 L150.170898,46.7850962 C152.233398,45.9257212 153.837565,44.7548227 154.983398,43.2724008 C156.129231,41.789979 156.780924,39.9172576 156.938476,37.6542368 C157.138997,34.7896534 156.283203,32.5302133 154.371093,30.8759165 C152.458984,29.2216196 149.734049,28.3944712 146.196289,28.3944712 L146.196289,28.3944712 L135.15332,28.3729868 L129.739257,59.6542368 L137.086914,59.6542368 Z M144.305664,42.8319712 L140.008789,42.7890024 L141.512695,34.1952524 L146.49707,34.2167368 C148.244466,34.3026743 149.261393,35.1405649 149.547851,36.7304087 C149.705403,37.6613982 149.597981,38.6246144 149.225586,39.6200571 C148.85319,40.6154998 148.233724,41.3996795 147.367187,41.9725962 C146.500651,42.5455128 145.480143,42.8319712 144.305664,42.8319712 L144.305664,42.8319712 Z M170.709961,60.0839243 C172.91569,60.126893 174.902994,59.7365935 176.671875,58.9130258 C178.440755,58.0894581 179.976888,56.9758514 181.280273,55.5722055 C182.583659,54.1685597 183.647135,52.5464894 184.470703,50.7059946 C185.294271,48.8654998 185.860026,46.931906 186.167968,44.9052133 C186.475911,42.8785206 186.572591,41.0702524 186.458007,39.4804087 C186.300455,37.2317107 185.741862,35.2265024 184.782226,33.4647837 C183.822591,31.7030649 182.544271,30.35313 180.947265,29.414979 C179.35026,28.4768279 177.4847,27.986268 175.350586,27.9432993 C171.88444,27.8716847 168.819336,28.9315805 166.155273,31.1229868 C164.565429,32.4263722 163.24056,34.0591847 162.180664,36.0214243 C161.120768,37.9836639 160.383138,40.1285206 159.967773,42.4559946 C159.552409,44.7834685 159.416341,46.8065805 159.55957,48.5253305 C159.817382,52.0057993 160.927409,54.7844451 162.889648,56.861268 C164.851888,58.9380909 167.458659,60.0123097 170.709961,60.0839243 Z M171.428626,54.2264631 L171.139648,54.2186899 C168.475586,54.1184295 167.07194,52.2492889 166.928711,48.611268 C166.857096,47.4797576 166.957356,45.8827524 167.229492,43.8202524 C167.659179,40.4830128 168.540039,37.9585988 169.87207,36.2470102 C171.204101,34.5354217 172.887044,33.7297576 174.920898,33.830018 C177.556315,33.9732472 178.945638,35.8352264 179.088867,39.4159555 C179.174804,41.5787159 178.938476,43.9384165 178.379882,46.4950571 C177.821289,49.0516977 176.911784,50.9996144 175.651367,52.3388071 C174.39095,53.6779998 172.887044,54.3046274 171.139648,54.2186899 L171.428626,54.2264631 Z M219.329101,59.6542368 L220.209961,54.0682993 L208.393554,54.0253305 L213.249023,49.3417368 L216.514648,46.3339243 C218.276367,44.658143 219.61914,43.0611378 220.542968,41.5429087 C221.466797,40.0246795 221.993164,38.4634816 222.12207,36.8593149 C222.336914,34.1379607 221.606445,31.978781 219.930664,30.3817758 C218.254882,28.7847706 215.891601,27.9576222 212.84082,27.9003305 C210.806966,27.8860076 208.891276,28.3371795 207.09375,29.2538462 C205.296224,30.1705128 203.860351,31.4416717 202.786132,33.0673227 C201.711914,34.6929738 201.117513,36.4869191 201.002929,38.4491587 L201.002929,38.4491587 L208.02832,38.4061899 C208.214518,36.9166066 208.690755,35.7099008 209.457031,34.7860727 C210.223307,33.8622446 211.157877,33.4146534 212.260742,33.4432993 C213.82194,33.486268 214.681315,34.3384816 214.838867,35.9999399 C215.039388,38.1340545 213.943685,40.4042368 211.551757,42.8104868 L211.551757,42.8104868 L210.026367,44.3358774 L198.897461,54.6698618 L198.124023,59.6542368 L219.329101,59.6542368 Z M233.766601,60.0839243 C237.060872,60.1555389 239.785807,59.0598357 241.941406,56.7968149 C244.097005,54.5337941 245.518554,51.1750701 246.206054,46.720643 L246.206054,46.720643 L247.065429,41.1561899 C247.194336,40.0819712 247.244466,39.0149139 247.21582,37.955018 C247.101237,34.8899139 246.274088,32.4693409 244.734375,30.6932993 C243.194661,28.9172576 241.064127,28.0005909 238.342773,27.9432993 C234.991211,27.8716847 232.234049,28.9996144 230.071289,31.3270883 C227.908528,33.6545623 226.497721,37.016867 225.838867,41.4140024 L225.838867,41.4140024 L225.022461,46.8710337 C224.893554,47.9452524 224.850586,49.0123097 224.893554,50.0722055 C224.950846,52.0344451 225.337565,53.7854217 226.053711,55.3251352 C226.769856,56.8648488 227.790364,58.0321665 229.115234,58.8270883 C230.440104,59.6220102 231.99056,60.0409555 233.766601,60.0839243 Z M234.427172,54.546213 L234.239257,54.5409555 C232.520507,54.4406951 231.69694,53.0656951 231.768554,50.4159555 C231.768554,49.8430389 231.840169,48.9621795 231.983398,47.7733774 L231.983398,47.7733774 L233.12207,40.0390024 C233.737955,35.5416066 235.320638,33.3573618 237.870117,33.486268 C239.531575,33.5722055 240.362304,34.9257212 240.362304,37.5468149 C240.347981,38.3059295 240.276367,39.1867889 240.147461,40.189393 L240.147461,40.189393 L239.030273,47.8163462 C238.428711,52.4283253 236.831705,54.6698618 234.239257,54.5409555 L234.427172,54.546213 Z M269.172851,59.6542368 L270.053711,54.0682993 L258.237304,54.0253305 L263.092773,49.3417368 L266.358398,46.3339243 C268.120117,44.658143 269.46289,43.0611378 270.386718,41.5429087 C271.310547,40.0246795 271.836914,38.4634816 271.96582,36.8593149 C272.180664,34.1379607 271.450195,31.978781 269.774414,30.3817758 C268.098632,28.7847706 265.735351,27.9576222 262.68457,27.9003305 C260.650716,27.8860076 258.735026,28.3371795 256.9375,29.2538462 C255.139974,30.1705128 253.704101,31.4416717 252.629882,33.0673227 C251.555664,34.6929738 250.961263,36.4869191 250.846679,38.4491587 L250.846679,38.4491587 L257.87207,38.4061899 C258.058268,36.9166066 258.534505,35.7099008 259.300781,34.7860727 C260.067057,33.8622446 261.001627,33.4146534 262.104492,33.4432993 C263.66569,33.486268 264.525065,34.3384816 264.682617,35.9999399 C264.883138,38.1340545 263.787435,40.4042368 261.395507,42.8104868 L261.395507,42.8104868 L259.870117,44.3358774 L248.741211,54.6698618 L247.967773,59.6542368 L269.172851,59.6542368 Z M283.610351,60.0839243 C286.904622,60.1555389 289.629557,59.0598357 291.785156,56.7968149 C293.940755,54.5337941 295.362304,51.1750701 296.049804,46.720643 L296.049804,46.720643 L296.909179,41.1561899 C297.038086,40.0819712 297.088216,39.0149139 297.05957,37.955018 C296.944987,34.8899139 296.117838,32.4693409 294.578125,30.6932993 C293.038411,28.9172576 290.907877,28.0005909 288.186523,27.9432993 C284.834961,27.8716847 282.077799,28.9996144 279.915039,31.3270883 C277.752278,33.6545623 276.341471,37.016867 275.682617,41.4140024 L275.682617,41.4140024 L274.866211,46.8710337 C274.737304,47.9452524 274.694336,49.0123097 274.737304,50.0722055 C274.794596,52.0344451 275.181315,53.7854217 275.897461,55.3251352 C276.613606,56.8648488 277.634114,58.0321665 278.958984,58.8270883 C280.283854,59.6220102 281.83431,60.0409555 283.610351,60.0839243 Z M284.270922,54.546213 L284.083007,54.5409555 C282.364257,54.4406951 281.54069,53.0656951 281.612304,50.4159555 C281.612304,49.8430389 281.683919,48.9621795 281.827148,47.7733774 L281.827148,47.7733774 L282.96582,40.0390024 C283.581705,35.5416066 285.164388,33.3573618 287.713867,33.486268 C289.375325,33.5722055 290.206054,34.9257212 290.206054,37.5468149 C290.191731,38.3059295 290.120117,39.1867889 289.991211,40.189393 L289.991211,40.189393 L288.874023,47.8163462 C288.272461,52.4283253 286.675455,54.6698618 284.083007,54.5409555 L284.270922,54.546213 Z" id="EURO2020" fill-opacity="0.54" fill="#FFFFFF" fill-rule="nonzero" mask="url(#mask-3)"></path>
            </g>
        </g>
    </g>
</svg>