<?xml version="1.0" encoding="UTF-8"?>
<svg width="375px" height="88px" viewBox="0 0 375 88" version="1.1" xmlns="http://www.w3.org/2000/svg" xmlns:xlink="http://www.w3.org/1999/xlink">
    <title>Group</title>
    <defs>
        <linearGradient x1="0%" y1="50%" x2="100%" y2="50%" id="linearGradient-1">
            <stop stop-color="#00267A" offset="0%"></stop>
            <stop stop-color="#001663" offset="100%"></stop>
        </linearGradient>
        <rect id="path-2" x="0" y="0" width="375" height="88"></rect>
        <polygon id="path-4" points="21 88 364 88 364 19 21 19"></polygon>
    </defs>
    <g id="Live-now-/-Today-/-Tables/Bracket-/-Tomorrow-" stroke="none" stroke-width="1" fill="none" fill-rule="evenodd">
        <g id="Mobile-UI-Copy" transform="translate(0.000000, -1266.000000)">
            <g id="Group" transform="translate(0.000000, 1266.000000)">
                <g id="shapes">
                    <mask id="mask-3" fill="white">
                        <use xlink:href="#path-2"></use>
                    </mask>
                    <use id="Mask" fill="url(#linearGradient-1)" xlink:href="#path-2"></use>
                    <g mask="url(#mask-3)" fill="#FFFFFF" fill-opacity="0.16">
                        <g transform="translate(-363.491000, -304.745000)">
                            <path d="M324.567,277.933 C376.29,323.427 466.283,415.141 523.384,559.659 C601.819,758.172 570.014,934.382 554.18,1001.745 L726.433,977.151 L620.566,235.671 L324.567,277.933 Z" id="Fill-9"></path>
                            <path d="M18.179,433.424 C40.516,473.39 80.497,529.89 147.164,556.626 C305.815,620.25 447.328,447.834 628.691,489.356 C687.697,502.865 769.806,543.344 852.114,672.108 L944.69,468.298 L799.863,0 L129.341,206.153 L18.179,433.424 Z" id="Fill-18"></path>
                        </g>
                    </g>
                </g>
                <polygon id="Fill-1" fill="#293D7E" points="242 77 364 77 364 75 242 75"></polygon>
                <path d="M268.490771,58.4475544 C268.490771,59.2470139 267.84361,59.894715 267.044817,59.894715 C266.246519,59.894715 265.598862,59.2470139 265.598862,58.4475544 C265.598862,57.6485909 266.246519,57.0003939 267.044817,57.0003939 C267.84361,57.0003939 268.490771,57.6485909 268.490771,58.4475544" id="Fill-3" fill="#293D7E"></path>
                <mask id="mask-5" fill="white">
                    <use xlink:href="#path-4"></use>
                </mask>
                <g id="Clip-6"></g>
                <path d="M286.11254,58.4475544 C286.11254,59.2470139 285.464883,59.894715 284.666585,59.894715 C283.867792,59.894715 283.220631,59.2470139 283.220631,58.4475544 C283.220631,57.6485909 283.867792,57.0003939 284.666585,57.0003939 C285.464883,57.0003939 286.11254,57.6485909 286.11254,58.4475544" id="Fill-7" fill="#293D7E" mask="url(#mask-5)"></path>
                <path d="M303.733863,58.4475544 C303.733863,59.2470139 303.086206,59.894715 302.287908,59.894715 C301.48961,59.894715 300.841953,59.2470139 300.841953,58.4475544 C300.841953,57.6485909 301.48961,57.0003939 302.287908,57.0003939 C303.086206,57.0003939 303.733863,57.6485909 303.733863,58.4475544" id="Fill-9" fill="#293D7E" mask="url(#mask-5)"></path>
                <path d="M321.355632,58.4475544 C321.355632,59.2470139 320.707975,59.894715 319.909677,59.894715 C319.110884,59.894715 318.463722,59.2470139 318.463722,58.4475544 C318.463722,57.6485909 319.110884,57.0003939 319.909677,57.0003939 C320.707975,57.0003939 321.355632,57.6485909 321.355632,58.4475544" id="Fill-11" fill="#293D7E" mask="url(#mask-5)"></path>
                <path d="M338.976905,58.4475544 C338.976905,59.2470139 338.329248,59.894715 337.53095,59.894715 C336.732652,59.894715 336.084995,59.2470139 336.084995,58.4475544 C336.084995,57.6485909 336.732652,57.0003939 337.53095,57.0003939 C338.329248,57.0003939 338.976905,57.6485909 338.976905,58.4475544" id="Fill-13" fill="#293D7E" mask="url(#mask-5)"></path>
                <polygon id="Fill-17" fill="#293D7E" mask="url(#mask-5)" points="247.851873 87.5959865 251.00344 87.5959865 251.00344 54.4987601 247.851873 54.4987601"></polygon>
                <path d="M242.275631,57.0003939 C242.275631,57.0003939 247.819614,57.7696009 247.819614,63.8969719 L250.971676,63.8969719 C250.971676,63.8969719 250.869597,57.0003939 257.613752,57.0003939 L242.275631,57.0003939 Z" id="Fill-18" fill="#293D7E" mask="url(#mask-5)"></path>
                <polygon id="Fill-19" fill="#293D7E" mask="url(#mask-5)" points="241.684018 57.0002947 364 57.0002947 364 51.9967297 241.684018 51.9967297"></polygon>
                <path d="M259.948687,57.0003939 C259.948687,57.0003939 265.49267,57.7696009 265.49267,63.8969719 L268.644732,63.8969719 C268.644732,63.8969719 268.542653,57.0003939 275.286809,57.0003939 L259.948687,57.0003939 Z" id="Fill-20" fill="#293D7E" mask="url(#mask-5)"></path>
                <path d="M277.571447,57.0003939 C277.571447,57.0003939 283.11543,57.7696009 283.11543,63.8969719 L286.267492,63.8969719 C286.267492,63.8969719 286.165413,57.0003939 292.910064,57.0003939 L277.571447,57.0003939 Z" id="Fill-21" fill="#293D7E" mask="url(#mask-5)"></path>
                <path d="M295.194207,57.0003939 C295.194207,57.0003939 300.73819,57.7696009 300.73819,63.8969719 L303.890748,63.8969719 C303.890748,63.8969719 303.788173,57.0003939 310.532824,57.0003939 L295.194207,57.0003939 Z" id="Fill-22" fill="#293D7E" mask="url(#mask-5)"></path>
                <path d="M312.817412,57.0003939 C312.817412,57.0003939 318.361395,57.7696009 318.361395,63.8969719 L321.513458,63.8969719 C321.513458,63.8969719 321.411379,57.0003939 328.155534,57.0003939 L312.817412,57.0003939 Z" id="Fill-23" fill="#293D7E" mask="url(#mask-5)"></path>
                <path d="M330.440172,57.0003939 C330.440172,57.0003939 335.984155,57.7696009 335.984155,63.8969719 L339.136218,63.8969719 C339.136218,63.8969719 339.034139,57.0003939 345.778294,57.0003939 L330.440172,57.0003939 Z" id="Fill-24" fill="#293D7E" mask="url(#mask-5)"></path>
                <polygon id="Fill-27" fill="#293D7E" mask="url(#mask-5)" points="265.441184 87.5959865 268.592751 87.5959865 268.592751 54.4987601 265.441184 54.4987601"></polygon>
                <polygon id="Fill-29" fill="#293D7E" mask="url(#mask-5)" points="283.063201 87.5959865 286.214768 87.5959865 286.214768 54.4987601 283.063201 54.4987601"></polygon>
                <polygon id="Fill-31" fill="#293D7E" mask="url(#mask-5)" points="300.684226 87.5959865 303.835793 87.5959865 303.835793 54.4987601 300.684226 54.4987601"></polygon>
                <polygon id="Fill-33" fill="#293D7E" mask="url(#mask-5)" points="318.306243 87.5959865 321.45781 87.5959865 321.45781 54.4987601 318.306243 54.4987601"></polygon>
                <polygon id="Fill-35" fill="#293D7E" mask="url(#mask-5)" points="335.927268 87.5959865 339.078835 87.5959865 339.078835 54.4987601 335.927268 54.4987601"></polygon>
                <path d="M250.869449,58.4475544 C250.869449,59.2470139 250.221792,59.894715 249.423494,59.894715 C248.625196,59.894715 247.977539,59.2470139 247.977539,58.4475544 C247.977539,57.6485909 248.625196,57.0003939 249.423494,57.0003939 C250.221792,57.0003939 250.869449,57.6485909 250.869449,58.4475544" id="Fill-39" fill="#293D7E" mask="url(#mask-5)"></path>
                <path d="M268.503358,58.4475544 C268.503358,59.2470139 267.855701,59.894715 267.057403,59.894715 C266.259105,59.894715 265.611448,59.2470139 265.611448,58.4475544 C265.611448,57.6485909 266.259105,57.0003939 267.057403,57.0003939 C267.855701,57.0003939 268.503358,57.6485909 268.503358,58.4475544" id="Fill-40" fill="#293D7E" mask="url(#mask-5)"></path>
                <path d="M286.137713,58.4475544 C286.137713,59.2470139 285.490056,59.894715 284.691758,59.894715 C283.892965,59.894715 283.245804,59.2470139 283.245804,58.4475544 C283.245804,57.6485909 283.892965,57.0003939 284.691758,57.0003939 C285.490056,57.0003939 286.137713,57.6485909 286.137713,58.4475544" id="Fill-41" fill="#293D7E" mask="url(#mask-5)"></path>
                <path d="M303.771573,58.4475544 C303.771573,59.2470139 303.123916,59.894715 302.325618,59.894715 C301.52732,59.894715 300.879663,59.2470139 300.879663,58.4475544 C300.879663,57.6485909 301.52732,57.0003939 302.325618,57.0003939 C303.123916,57.0003939 303.771573,57.6485909 303.771573,58.4475544" id="Fill-42" fill="#293D7E" mask="url(#mask-5)"></path>
                <path d="M321.405482,58.4475544 C321.405482,59.2470139 320.758321,59.894715 319.959527,59.894715 C319.161229,59.894715 318.513572,59.2470139 318.513572,58.4475544 C318.513572,57.6485909 319.161229,57.0003939 319.959527,57.0003939 C320.758321,57.0003939 321.405482,57.6485909 321.405482,58.4475544" id="Fill-43" fill="#293D7E" mask="url(#mask-5)"></path>
                <path d="M339.039837,58.4475544 C339.039837,59.2470139 338.39218,59.894715 337.593882,59.894715 C336.795585,59.894715 336.147928,59.2470139 336.147928,58.4475544 C336.147928,57.6485909 336.795585,57.0003939 337.593882,57.0003939 C338.39218,57.0003939 339.039837,57.6485909 339.039837,58.4475544" id="Fill-44" fill="#293D7E" mask="url(#mask-5)"></path>
                <path d="M31.1273326,45.0277936 C31.2631076,45.0277936 31.3731151,54.3287014 31.3731151,65.7993581 C31.3731151,77.2744784 31.2631076,86.5734024 31.1273326,86.5734024 C30.9915575,86.5734024 30.88155,77.2744784 30.88155,65.7993581 C30.88155,54.3287014 30.9915575,45.0277936 31.1273326,45.0277936" id="Fill-46" fill="#293D7E" mask="url(#mask-5)"></path>
                <path d="M28.5691125,42.1100144 C26.9631017,41.500005 25.0771168,41.6835038 23.6182782,42.5920707 C22.1599352,43.5006375 21.1624345,45.1134429 20.9999009,46.8249409 C22.5068058,45.3812519 24.7867366,44.7995112 26.8000725,45.3455441 C25.4294382,45.0073112 24.0246124,46.0587095 23.4676373,47.3565914 C22.9111578,48.6544732 22.9904425,50.124943 23.0801333,51.5344119 C24.8823737,49.2823365 27.3758777,47.4508205 30.2281449,47.0287733 C33.0804121,46.6067261 36.2641885,47.8495583 37.6021179,50.4061425 C38.5361908,47.7766548 36.5015471,44.5396373 33.7290601,44.2450474 C36.2859918,43.479312 39.086724,43.5517196 41.6005446,44.4493758 C40.3453687,41.8967591 37.4202586,40.2735389 34.5917768,40.5606897 C35.775101,39.2305716 37.8186643,38.7514911 39.4692727,39.4165501 C38.159093,37.5830503 35.7483424,36.608523 33.533326,37.0166838 C31.3183096,37.4253405 29.4129991,39.1953597 28.8411581,41.3755234" id="Fill-47" fill="#293D7E" mask="url(#mask-5)"></path>
                <path d="M128.048572,28.9694693 C128.184347,28.9694693 128.29485,39.265238 128.29485,51.9628568 C128.29485,64.664939 128.184347,74.958228 128.048572,74.958228 C127.912797,74.958228 127.80279,64.664939 127.80279,51.9628568 C127.80279,39.265238 127.912797,28.9694693 128.048572,28.9694693" id="Fill-48" fill="#293D7E" mask="url(#mask-5)"></path>
                <path d="M125.486735,25.7400398 C123.878246,25.064566 121.989288,25.2679025 120.528468,26.2731781 C119.067647,27.2789498 118.06866,29.0643432 117.906126,30.958844 C119.415013,29.3609168 121.698412,28.7171833 123.714722,29.3217374 C122.342601,28.9473007 120.935297,30.1107821 120.377331,31.5470319 C119.81986,32.9837776 119.900136,34.6119572 119.989332,36.1721927 C121.794545,33.6790892 124.291518,31.6516758 127.148245,31.1844978 C130.004972,30.7173199 133.193208,32.0935607 134.532624,34.9229133 C135.469174,32.012722 133.431062,28.4295366 130.654115,28.1032064 C133.215011,27.2551445 136.019708,27.3359832 138.537493,28.3293562 C137.280334,25.5034752 134.350765,23.707171 131.518319,24.0250703 C132.703129,22.5526166 134.749666,22.021958 136.402752,22.7584328 C135.09059,20.7290356 132.676371,19.6498645 130.458381,20.1016682 C128.239896,20.5539679 126.331612,22.5134372 125.759276,24.9266939" id="Fill-49" fill="#293D7E" mask="url(#mask-5)"></path>
                <path d="M226.080392,57.2038295 C227.111093,56.8120349 228.321672,56.9300692 229.257727,57.5132977 C230.194277,58.0960303 230.834501,59.1310625 230.938562,60.2300714 C229.971785,59.3031546 228.507991,58.9302058 227.216146,59.2808372 C228.095215,59.0636143 228.997574,59.7380963 229.354355,60.5712799 C229.712127,61.4039675 229.661088,62.3482423 229.603111,63.2528416 C228.446545,61.8071689 226.846481,60.6317849 225.015995,60.3605043 C223.185014,60.0897196 221.141451,60.8876913 220.283194,62.5282694 C219.683108,60.8410727 220.989323,58.7635691 222.768274,58.574119 C221.127576,58.0821439 219.329795,58.1292585 217.716351,58.7050478 C218.522082,57.0669494 220.399643,56.0254699 222.214767,56.2094646 C221.455616,55.3559474 220.14395,55.047967 219.085004,55.4749736 C219.925422,54.2985977 221.472464,53.6727181 222.894138,53.9350718 C224.315812,54.1969295 225.538779,55.333134 225.90547,56.7321881" id="Fill-51" fill="#293D7E" mask="url(#mask-5)"></path>
                <path d="M237.35661,77.0463944 C233.398816,75.1092425 228.367211,75.6041932 224.862331,78.2758361 C222.617583,72.7599623 217.041886,68.7636568 211.10148,68.4125294 C205.160578,68.0609061 199.153275,71.371819 196.274745,76.5841758 C193.189083,74.7114965 189.275392,74.2671319 185.849797,75.4023446 C182.423707,76.5365653 179.546663,79.2290378 178.186435,82.5741707 C174.988784,81.0149272 169.819917,84.0059571 169.352137,87.7999181 L244.058149,87.670973 C244.013552,83.2615472 241.314403,78.9830503 237.35661,77.0463944" id="Fill-52" fill="#293D7E" mask="url(#mask-5)"></path>
                <path d="M44.5253906,60.0647401 C46.9029948,60.1077089 49.1123047,59.6708599 51.1533203,58.7541932 C53.1943359,57.8375266 54.8414714,56.5269797 56.0947266,54.8225526 C57.3479818,53.1181255 58.0677083,51.1702089 58.2539063,48.9788026 L58.2539063,48.9788026 L51.078125,49.0647401 C50.7916667,50.7261984 50.1328125,52.0116802 49.1015625,52.9211854 C48.0703125,53.8306906 46.688151,54.2567974 44.9550781,54.1995057 C42.2766927,54.0992453 40.9733073,52.2873964 41.0449219,48.7639589 C41.0449219,47.5751568 41.2382813,45.5914328 41.625,42.812787 C42.4700521,36.6682557 44.8261719,33.6604432 48.6933594,33.7893495 C50.2402344,33.8466412 51.3717448,34.2834901 52.0878906,35.0998964 C52.8040365,35.9163026 53.1477865,37.2769797 53.1191406,39.1819276 L53.1191406,39.1819276 L60.4453125,39.203412 C60.2734375,35.7086203 59.195638,32.9657818 57.2119141,30.9748964 C55.2281901,28.9840109 52.531901,27.9599224 49.1230469,27.9026307 C46.8027344,27.859662 44.6650391,28.3430604 42.7099609,29.3528261 C40.7548828,30.3625917 39.0576172,31.8808208 37.6181641,33.9075136 C36.1787109,35.9342063 35.1402995,38.3153912 34.5029297,41.0510682 C33.8655599,43.7867453 33.6113281,46.3147401 33.7402344,48.6350526 C33.9121094,52.1155214 34.9361979,54.8726828 36.8125,56.906537 C38.6888021,58.9403912 41.2597656,59.9931255 44.5253906,60.0647401 Z M73.1855469,60.0647401 C75.391276,60.1077089 77.3785807,59.7174094 79.1474609,58.8938417 C80.9163411,58.070274 82.452474,56.9566672 83.7558594,55.5530214 C85.0592448,54.1493755 86.1227214,52.5273052 86.9462891,50.6868104 C87.7698568,48.8463156 88.335612,46.9127219 88.6435547,44.8860292 C88.9514974,42.8593365 89.0481771,41.0510682 88.9335938,39.4612245 C88.7760417,37.2125266 88.2174479,35.2073182 87.2578125,33.4455995 C86.2981771,31.6838807 85.0198568,30.3339458 83.4228516,29.3957948 C81.8258464,28.4576438 79.9602865,27.9670839 77.8261719,27.9241151 C74.360026,27.8525005 71.2949219,28.9123964 68.6308594,31.1038026 C67.0410156,32.407188 65.7161458,34.0400005 64.65625,36.0022401 C63.5963542,37.9644797 62.858724,40.1093365 62.4433594,42.4368104 C62.0279948,44.7642844 61.8919271,46.7873964 62.0351563,48.5061464 C62.2929688,51.9866151 63.4029948,54.7652609 65.3652344,56.8420839 C67.327474,58.9189068 69.9342448,59.9931255 73.1855469,60.0647401 Z M73.9042125,54.207279 L73.6152344,54.1995057 C70.9511719,54.0992453 69.547526,52.2301047 69.4042969,48.5920839 C69.3326823,47.4605734 69.4329427,45.8635682 69.7050781,43.8010682 C70.1347656,40.4638287 71.015625,37.9394146 72.3476563,36.2278261 C73.6796875,34.5162375 75.3626302,33.7105734 77.3964844,33.8108339 C80.031901,33.954063 81.421224,35.8160422 81.5644531,39.3967714 C81.6503906,41.5595318 81.4140625,43.9192323 80.8554688,46.4758729 C80.296875,49.0325136 79.3873698,50.9804302 78.1269531,52.3196229 C76.8665365,53.6588156 75.3626302,54.2854432 73.6152344,54.1995057 L73.9042125,54.207279 Z M97.3125,59.6350526 L99.1601563,49.0217714 L104.316406,49.0432557 C106.708333,49.0432557 108.867513,48.6350526 110.793945,47.8186464 C112.720378,47.0022401 114.270833,45.8205995 115.445313,44.2737245 C116.619792,42.7268495 117.292969,40.9006776 117.464844,38.7952089 C117.708333,35.7157818 116.831055,33.2092714 114.833008,31.2756776 C112.834961,29.3420839 110.095703,28.375287 106.615234,28.375287 L106.615234,28.375287 L95.3789063,28.3538026 L89.9648438,59.6350526 L97.3125,59.6350526 Z M104.595703,43.2424745 L100.169922,43.1995057 L101.738281,34.1760682 L106.873047,34.1975526 C107.775391,34.2548443 108.502279,34.5377219 109.053711,35.0461854 C109.605143,35.554649 109.938151,36.2457297 110.052734,37.1194276 C110.253255,38.8238547 109.859375,40.2597271 108.871094,41.4270448 C107.882813,42.5943625 106.457682,43.1995057 104.595703,43.2424745 L104.595703,43.2424745 Z M119.742188,59.6350526 L122.513672,53.7913026 L132.503906,53.7913026 L133.255859,59.6350526 L140.904297,59.6350526 L135.125,28.3538026 L128.207031,28.3538026 L111.642578,59.6350526 L119.742188,59.6350526 Z M131.751953,47.969037 L125.263672,47.969037 L130.376953,37.1838807 L131.751953,47.969037 Z M159.875,59.6350526 L162.646484,53.7913026 L172.636719,53.7913026 L173.388672,59.6350526 L181.037109,59.6350526 L175.257813,28.3538026 L168.339844,28.3538026 L151.775391,59.6350526 L159.875,59.6350526 Z M171.884766,47.969037 L165.396484,47.969037 L170.509766,37.1838807 L171.884766,47.969037 Z M190.898438,59.6350526 L192.123047,52.6955995 L194.099609,37.0120057 L197.644531,59.6350526 L202.521484,59.6350526 L213.478516,37.828412 L210.298828,51.9651307 L208.966797,59.6350526 L216.357422,59.6350526 L221.771484,28.3538026 L211.974609,28.3538026 L201.490234,50.0530214 L198.503906,28.3538026 L188.964844,28.3538026 L183.550781,59.6350526 L190.898438,59.6350526 Z M242.117188,59.6350526 L243.126953,53.8342714 L229.527344,53.8342714 L230.837891,46.3791932 L242.332031,46.3791932 L243.298828,40.7717714 L231.783203,40.7717714 L232.943359,34.1760682 L246.564453,34.1760682 L247.574219,28.3538026 L226.583984,28.3538026 L221.169922,59.6350526 L242.117188,59.6350526 Z M252.623047,59.6350526 L254.556641,48.5920839 L258.638672,48.5920839 L262.076172,59.6350526 L269.917969,59.6350526 L269.917969,59.2698182 L265.707031,46.765912 C267.769531,45.906537 269.373698,44.7356386 270.519531,43.2532167 C271.665365,41.7707948 272.317057,39.8980734 272.474609,37.6350526 C272.67513,34.7704693 271.819336,32.5110292 269.907227,30.8567323 C267.995117,29.2024354 265.270182,28.375287 261.732422,28.375287 L261.732422,28.375287 L250.689453,28.3538026 L245.275391,59.6350526 L252.623047,59.6350526 Z M259.841797,42.812787 L255.544922,42.7698182 L257.048828,34.1760682 L262.033203,34.1975526 C263.780599,34.2834901 264.797526,35.1213807 265.083984,36.7112245 C265.241536,37.6422141 265.134115,38.6054302 264.761719,39.6008729 C264.389323,40.5963156 263.769857,41.3804953 262.90332,41.953412 C262.036784,42.5263287 261.016276,42.812787 259.841797,42.812787 L259.841797,42.812787 Z M281.175781,59.6350526 L286.589844,28.3538026 L279.263672,28.3538026 L273.828125,59.6350526 L281.175781,59.6350526 Z M298.900391,60.0647401 C301.277995,60.1077089 303.487305,59.6708599 305.52832,58.7541932 C307.569336,57.8375266 309.216471,56.5269797 310.469727,54.8225526 C311.722982,53.1181255 312.442708,51.1702089 312.628906,48.9788026 L312.628906,48.9788026 L305.453125,49.0647401 C305.166667,50.7261984 304.507813,52.0116802 303.476563,52.9211854 C302.445313,53.8306906 301.063151,54.2567974 299.330078,54.1995057 C296.651693,54.0992453 295.348307,52.2873964 295.419922,48.7639589 C295.419922,47.5751568 295.613281,45.5914328 296,42.812787 C296.845052,36.6682557 299.201172,33.6604432 303.068359,33.7893495 C304.615234,33.8466412 305.746745,34.2834901 306.462891,35.0998964 C307.179036,35.9163026 307.522786,37.2769797 307.494141,39.1819276 L307.494141,39.1819276 L314.820313,39.203412 C314.648438,35.7086203 313.570638,32.9657818 311.586914,30.9748964 C309.60319,28.9840109 306.906901,27.9599224 303.498047,27.9026307 C301.177734,27.859662 299.040039,28.3430604 297.084961,29.3528261 C295.129883,30.3625917 293.432617,31.8808208 291.993164,33.9075136 C290.553711,35.9342063 289.515299,38.3153912 288.87793,41.0510682 C288.24056,43.7867453 287.986328,46.3147401 288.115234,48.6350526 C288.287109,52.1155214 289.311198,54.8726828 291.1875,56.906537 C293.063802,58.9403912 295.634766,59.9931255 298.900391,60.0647401 Z M320.255859,59.6350526 L323.027344,53.7913026 L333.017578,53.7913026 L333.769531,59.6350526 L341.417969,59.6350526 L335.638672,28.3538026 L328.720703,28.3538026 L312.15625,59.6350526 L320.255859,59.6350526 Z M332.265625,47.969037 L325.777344,47.969037 L330.890625,37.1838807 L332.265625,47.969037 Z" id="COPAAMERICA" fill-opacity="0.54" fill="#FFFFFF" fill-rule="nonzero" mask="url(#mask-5)"></path>
                <path d="M47.0892761,55.3544595 C47.1938328,55.3544595 47.2790638,62.5431477 47.2790638,71.4091138 C47.2790638,80.2780556 47.1938328,87.4657519 47.0892761,87.4657519 C46.9847193,87.4657519 46.8994883,80.2780556 46.8994883,71.4091138 C46.8994883,62.5431477 46.9847193,55.3544595 47.0892761,55.3544595" id="Fill-53" fill="#293D7E" mask="url(#mask-5)"></path>
                <path d="M45.1120146,53.0992101 C43.8707135,52.6275687 42.412866,52.7694082 41.2855366,53.471663 C40.1582072,54.1739177 39.3871635,55.4202215 39.2617945,56.7433964 C40.4262886,55.6275255 42.1883912,55.1782015 43.7443535,55.5997527 C42.6854072,55.3388869 41.5997022,56.1512409 41.1690872,57.1540369 C40.7389677,58.1573288 40.8004133,59.2940293 40.8692919,60.3836152 C42.2627206,58.6428566 44.1898344,57.2269405 46.3944447,56.9011062 C48.599055,56.5747759 51.059854,57.5354168 52.0935284,59.5112521 C52.8160102,57.4793753 51.2431999,54.9773448 49.1000353,54.7492112 C51.076702,54.1575516 53.2411744,54.2135931 55.1846408,54.9074169 C54.2138987,52.9340612 51.9532935,51.6798223 49.7670178,51.9015087 C50.6812696,50.8739156 52.2610173,50.5034464 53.53651,51.017243 C52.5241434,49.6003349 50.6609529,48.8469981 48.9488988,49.1629136 C47.2368447,49.4783331 45.7641313,50.8466387 45.3221191,52.5313558" id="Fill-54" fill="#293D7E" mask="url(#mask-5)"></path>
                <path d="M78.946663,60.8536696 C79.9773641,60.461875 81.1879425,60.5799093 82.124493,61.1631378 C83.0605481,61.7458704 83.700772,62.7809026 83.8048332,63.8799114 C82.8380554,62.9529947 81.3742615,62.5800459 80.0824164,62.9301813 C80.9614855,62.7134544 81.863349,63.3879364 82.2206257,64.22112 C82.578398,65.0538076 82.5273584,65.9980824 82.4693815,66.9026817 C81.3128159,65.457009 79.7122559,64.281625 77.8817703,64.0103444 C76.0512847,63.7395597 74.0077214,64.5375314 73.1494645,66.1781095 C72.5493784,64.4904168 73.8555939,62.4134091 75.63504,62.2239591 C73.9938466,61.731984 72.196066,61.7790985 70.5826222,62.3548879 C71.388353,60.7167895 73.2659139,59.67531 75.0810381,59.8593047 C74.3218871,59.0057874 73.0102208,58.6978071 71.9507789,59.1248137 C72.7916923,57.9484378 74.3392306,57.3225582 75.7604089,57.5849118 C77.1820828,57.8467695 78.4050493,58.9829741 78.7717411,60.3820282" id="Fill-56" fill="#293D7E" mask="url(#mask-5)"></path>
                <path d="M210.682213,43.8099569 C210.787265,43.8099569 210.872,49.7796182 210.872,57.1418863 C210.872,64.5061382 210.787265,70.4748076 210.682213,70.4748076 C210.57716,70.4748076 210.492425,64.5061382 210.492425,57.1418863 C210.492425,49.7796182 210.57716,43.8099569 210.682213,43.8099569" id="Fill-57" fill="#293D7E" mask="url(#mask-5)"></path>
                <path d="M211.925892,42.3284276 C212.956593,41.9366329 214.167172,42.0546673 215.103227,42.6378958 C216.039777,43.2206283 216.680001,44.2556606 216.784062,45.3546694 C215.817285,44.4277527 214.353491,44.0548038 213.061646,44.4049393 C213.940715,44.1882124 214.843074,44.8626943 215.199855,45.6958779 C215.557132,46.5285656 215.506588,47.4728403 215.448611,48.3774396 C214.292045,46.9317669 212.691485,45.7563829 210.861495,45.4851023 C209.030514,45.2143176 206.986951,46.0122893 206.128694,47.6528675 C205.528608,45.9651748 206.834823,43.8881671 208.613774,43.698717 C206.973076,43.2067419 205.175295,43.2538565 203.561851,43.8296459 C204.367582,42.1915474 206.245143,41.1500679 208.060267,41.3340626 C207.301116,40.4805454 205.98945,40.172565 204.930504,40.5995716 C205.770922,39.4231957 207.317964,38.7973162 208.739638,39.0596698 C210.161312,39.3215275 211.384279,40.457732 211.75097,41.8567861" id="Fill-58" fill="#293D7E" mask="url(#mask-5)"></path>
                <path d="M90.7994289,77.6073241 C87.1017885,75.7976295 82.4021877,76.2598481 79.1277294,78.7554313 C77.0301535,73.6030835 71.8216439,69.8696275 66.2717147,69.5413135 C60.7222809,69.2129994 55.1104105,72.3066895 52.4211724,77.1758541 C49.5386779,75.4261685 45.882662,75.0115605 42.6820376,76.0708939 C39.4814132,77.1307233 36.7941572,79.6461442 35.5236198,82.7715746 C32.5360731,81.3144952 27.7076346,84.1086359 27.2700822,87.6526418 L97.0604429,87.5326237 C97.0178274,83.4133243 94.4965738,79.4165228 90.7994289,77.6073241" id="Fill-59" fill="#293D7E" mask="url(#mask-5)"></path>
                <path d="M149.508067,77.6073241 C145.810427,75.7976295 141.110826,76.2598481 137.836368,78.7554313 C135.738792,73.6030835 130.530282,69.8696275 124.980353,69.5413135 C119.430919,69.2129994 113.819049,72.3066895 111.129811,77.1758541 C108.247316,75.4261685 104.5913,75.0115605 101.390676,76.0708939 C98.1900517,77.1307233 95.5027958,79.6461442 94.2322584,82.7715746 C91.2447116,81.3144952 86.4162732,84.1086359 85.9792162,87.6526418 L155.769081,87.5326237 C155.726466,83.4133243 153.205212,79.4165228 149.508067,77.6073241" id="Fill-60" fill="#293D7E" mask="url(#mask-5)"></path>
                <path d="M41.0001984,88 C41.0001984,88 52.72926,71.6674825 55.3066779,70.4126107 C57.8840958,69.1582308 71.8439108,62.6762845 71.8439108,62.6762845 C71.8439108,62.6762845 80.2198991,42.6037473 82.5825735,40.9307489 C84.9447519,39.2582425 87.3074263,37.3761808 90.3143312,38.4219892 C93.3207401,39.4673058 92.2470226,41.5579389 94.3944576,42.394684 C96.5423885,43.2309372 98.045593,43.6490639 99.1193105,45.7401889 C100.193028,47.8308219 104.48889,54.5218316 104.274146,56.6124647 C104.058907,58.7035897 104.281585,59.7489062 104.281585,59.7489062 C104.281585,59.7489062 113.079621,54.103705 116.300774,53.2674518 C119.522422,52.4307066 123.817788,51.5944534 124.891506,53.0583885 C124.891506,53.0583885 129.831598,49.294757 133.482733,48.2489486 C137.133373,47.203632 139.281304,48.0398852 139.281304,48.0398852 C139.281304,48.0398852 145.294617,52.01258 147.227309,54.103705 C149.160496,56.1943381 154.744819,63.9311562 156.462767,66.8580425 C158.180715,69.7854208 165.482986,74.803924 167.84566,79.8219353 C170.207839,84.8399466 173,87.9763881 173,87.9763881 L41.0001984,88 Z" id="Fill-62" fill-opacity="0.7" fill="#293D7E" mask="url(#mask-5)"></path>
                <path d="M89.9261563,71.3162561 C89.9311157,71.3236348 89.8696187,71.3777453 89.7471207,71.4751442 C89.6246227,71.5715593 89.4411236,71.7117547 89.201583,71.886384 C88.71903,72.2307236 88.018262,72.7408381 87.0481967,73.2037288 C86.0880502,73.6508784 84.7906623,74.057199 83.3514345,73.7979605 C82.6422354,73.6685873 81.9151824,73.3331021 81.3552623,72.7708448 C80.7958381,72.2203934 80.3832132,71.4293962 80.4169374,70.5680554 L80.6510227,70.6477454 C80.6311849,70.6752926 80.6088675,70.7048074 80.587046,70.7343222 C79.6219401,72.0674083 78.2506566,73.0827181 76.7940708,73.3208043 C75.3533552,73.5770913 73.9587623,73.0812423 73.2441079,72.228264 C72.5225102,71.3708585 72.4535741,70.3929341 72.5800396,69.8119841 C72.6370731,69.5119168 72.7511401,69.299902 72.8240438,69.1601985 C72.9118258,69.0268899 72.9614201,68.9604816 72.9688593,68.9654007 C72.9981199,68.9791743 72.7734576,69.2477591 72.6792283,69.829693 C72.5864869,70.3919503 72.6861715,71.3196995 73.3819801,72.1097128 C74.0658861,72.8908717 75.3855915,73.3439242 76.7529075,73.088621 C78.1271667,72.8515187 79.4394329,71.8799892 80.3787497,70.5833047 C80.4000753,70.5547737 80.4209049,70.5257508 80.4407427,70.4991875 L80.69169,70.1592752 L80.6748279,70.5788775 C80.6440795,71.3501981 81.0145492,72.0782304 81.5342979,72.5942478 C82.0555344,73.1205954 82.725058,73.4373878 83.3965654,73.5667611 C84.7574341,73.8269835 86.0230817,73.4580482 86.9718214,73.0399216 C87.9324638,72.6070376 88.6461263,72.1234864 89.1440535,71.8052183 C89.6399969,71.4800633 89.9152455,71.3014987 89.9261563,71.3162561" id="Fill-64" fill="#293D7E" mask="url(#mask-5)"></path>
                <path d="M96.5504724,61.8077617 C96.5737817,61.8156323 96.4240068,62.2411376 95.923104,62.7502683 C95.4350957,63.253496 94.5404138,63.8093584 93.4314843,63.8806859 C92.3220589,63.94857 91.3634003,63.5117506 90.813895,63.0754232 C90.2505033,62.6351605 90.0456786,62.233267 90.0675002,62.2224449 C90.1032081,62.1929301 90.357627,62.5471079 90.9215147,62.9288329 C91.4734997,63.3090822 92.3830599,63.6883476 93.4151182,63.6248908 C94.4466804,63.5589743 95.2997031,63.0670607 95.7971343,62.6184354 C96.3064682,62.1678425 96.5112929,61.7836579 96.5504724,61.8077617" id="Fill-66" fill="#293D7E" mask="url(#mask-5)"></path>
                <path d="M125.634578,63.4838591 C125.643009,63.4868106 125.627634,63.5433807 125.591431,63.650126 C125.556219,63.7568712 125.487778,63.9108402 125.374207,64.0938321 C125.153017,64.4593239 124.719562,64.9541891 124.007387,65.2980367 C123.653284,65.4677469 123.231236,65.5951526 122.763065,65.627127 C122.297374,65.6487712 121.781593,65.5774437 121.302016,65.3511634 C120.345837,64.9251662 119.466034,63.9413388 119.350975,62.6899105 L119.607873,62.6884347 C119.591011,62.8773296 119.562247,63.0780304 119.51414,63.2767635 C119.200704,64.5395059 118.243037,65.524317 117.176263,65.8932523 C116.646099,66.0900177 116.085683,66.1126458 115.594699,66.0162307 C115.101236,65.9212913 114.67274,65.7156714 114.33054,65.4697146 C113.634731,64.977309 113.302449,64.3338859 113.190366,63.8872283 C113.131844,63.6619319 113.114486,63.4799238 113.120934,63.3584211 C113.123909,63.2364266 113.129861,63.1734616 113.138788,63.1734616 C113.167552,63.1719859 113.149202,63.4317163 113.287075,63.8591893 C113.423459,64.2787916 113.76318,64.8740072 114.434688,65.3211567 C115.083878,65.76929 116.100066,66.0526323 117.095424,65.6713992 C118.079376,65.3201728 118.973562,64.3894722 119.263193,63.2157662 C119.307828,63.0312986 119.334609,62.8453552 119.350975,62.6707258 L119.607873,62.6692501 C119.708054,63.8070464 120.51545,64.7347956 121.399717,65.1416082 C121.843586,65.3580502 122.317212,65.4313453 122.75265,65.4205232 C123.190569,65.3993709 123.591787,65.2896742 123.932996,65.1391486 C124.618886,64.8326864 125.05482,64.379142 125.293369,64.0407054 C125.533901,63.6988254 125.61226,63.4745128 125.634578,63.4838591" id="Fill-68" fill="#293D7E" mask="url(#mask-5)"></path>
                <path d="M144.120206,71.3172399 C144.11814,71.3285539 144.059619,71.3118289 143.96043,71.3359326 C143.86273,71.3615122 143.732297,71.4539919 143.642531,71.6281294 C143.541854,71.8002991 143.54731,72.0388773 143.549293,72.3379608 C143.546318,72.4855349 143.537887,72.6552451 143.462999,72.8254472 C143.391087,72.9961413 143.242304,73.1451911 143.059797,73.2347194 C142.68784,73.4088568 142.242483,73.3980347 141.802581,73.3075226 C141.368134,73.2130752 140.912858,73.0709121 140.452127,72.8766062 C139.533144,72.4845511 138.589859,71.8652317 137.813212,71.0004475 L138.030435,70.8695985 C138.060688,70.9650297 138.096396,71.0673478 138.110282,71.174585 C138.216414,71.8101374 137.93819,72.4215861 137.544411,72.8416804 C137.145672,73.2745644 136.587736,73.5067477 136.063524,73.5662692 C134.993774,73.6853123 134.072311,73.2750563 133.433536,72.8446319 C132.784842,72.404861 132.349403,71.949349 132.05035,71.6409191 C131.754271,71.3275701 131.601521,71.1450701 131.613919,71.1327723 C131.62731,71.1199825 131.804362,71.2798545 132.120773,71.5700836 C132.440161,71.8553935 132.891965,72.2863098 133.53322,72.6931225 C134.162573,73.0915725 135.049815,73.4560805 136.032775,73.3326102 C136.517312,73.2691534 137.004328,73.0591062 137.358432,72.6709863 C137.710056,72.2931966 137.947117,71.7486482 137.855863,71.2168895 C137.84396,71.1258855 137.813212,71.0407844 137.788911,70.9606025 L137.616322,70.3949018 L138.006134,70.8302454 C138.754017,71.6650229 139.661097,72.2700767 140.546356,72.6621319 C141.425168,73.0241803 142.332248,73.3429404 142.981934,73.0743555 C143.304793,72.9380955 143.403982,72.6163839 143.407454,72.3325497 C143.417868,72.0511751 143.428283,71.7663571 143.556733,71.5804137 C143.670304,71.3925027 143.833965,71.2980553 143.950512,71.2862494 C144.068546,71.2764111 144.122604,71.3128127 144.120206,71.3172399" id="Fill-70" fill="#293D7E" mask="url(#mask-5)"></path>
                <path d="M167.463089,79.1366996 C167.349518,78.9045163 167.164036,78.6408506 166.957723,78.319139 C166.760338,77.9920165 166.487569,77.6422658 166.190003,77.2393886 C165.575033,76.4478995 164.776564,75.4985061 163.753929,74.4581087 C162.739228,73.4103326 161.519704,72.2558112 160.14842,70.9655217 C159.46749,70.3147199 158.741925,69.6373548 158.019831,68.8842349 C157.66176,68.5049695 157.294762,68.1163577 156.95752,67.6839656 C156.609864,67.2589522 156.321721,66.7709738 156.029114,66.2923418 C154.818516,64.3778138 153.403094,62.3693303 151.868149,60.2393442 C151.095965,59.1773026 150.290057,58.0872219 149.440506,56.9789404 C148.579052,55.8849244 147.72603,54.713186 146.675621,53.6939409 C145.598432,52.6938804 144.383867,51.7784291 143.135081,50.8565829 C141.879849,49.9416235 140.573534,49.0301075 139.2206,48.1303974 L139.240934,48.1412195 C138.113159,47.7865497 136.835112,47.7757276 135.59327,47.9282208 C134.343493,48.0920281 133.087764,48.4191507 131.894028,48.9573042 C129.500109,50.0247569 127.198436,51.5088604 124.965203,53.1533278 L124.866014,53.226131 L124.794102,53.1287321 C124.555554,52.8050529 124.148384,52.6299317 123.737743,52.5271217 C123.323134,52.4164411 122.880257,52.3903697 122.439363,52.3824991 C121.553112,52.3795476 120.655455,52.4877686 119.758293,52.6358346 C118.860635,52.7863602 117.96149,52.9826338 117.060361,53.203503 L116.383894,53.374197 L115.724289,53.579817 C115.291331,53.744608 114.856884,53.9153021 114.431365,54.1160028 C112.72036,54.8947022 111.051015,55.8377007 109.372246,56.8013596 C107.696949,57.773381 106.021156,58.7950856 104.351315,59.8561434 L104.186166,59.960921 L104.156409,59.7754696 C104.025976,58.9770937 104.037879,58.1856046 104.082018,57.3793581 C104.104335,56.9794323 104.165336,56.5657329 104.13558,56.1987653 C104.100864,56.006919 104.065652,55.813105 104.020521,55.6207668 L103.845453,55.0462116 C103.293468,53.5247226 102.511365,52.052425 101.711408,50.587998 C101.153472,49.5746559 100.576194,48.577055 100.002883,47.5824055 C99.7167239,47.084097 99.4300686,46.588248 99.1572997,46.0830527 C98.8889943,45.5724463 98.6231687,45.089879 98.2512111,44.6722443 C97.5301094,43.8153307 96.4806931,43.3386663 95.4382201,42.9333295 C94.9159917,42.7144279 94.3803728,42.5678376 93.862112,42.2677703 C93.3483146,41.9642596 92.9966907,41.4521774 92.7616135,40.9489497 C92.5166175,40.4442463 92.2860038,39.9528246 91.9219813,39.5612613 C91.565894,39.1652708 91.0997072,38.8819285 90.6042597,38.674341 C89.6118769,38.2508033 88.4989799,38.1307764 87.4604744,38.377717 C86.4140338,38.6039973 85.4618225,39.1303449 84.5686284,39.7029324 C84.1212875,39.9921777 83.6848573,40.2971641 83.2523946,40.6060859 C83.039139,40.7605468 82.811005,40.9115643 82.6101479,41.0699605 C82.4211935,41.2219618 82.2535646,41.4231545 82.0953586,41.6263149 C81.4719578,42.4566651 80.9561766,43.3681812 80.4567616,44.2708427 C79.9613142,45.1769477 79.4936395,46.0894476 79.0388594,46.998504 C78.1317789,48.8180927 77.2837157,50.6273511 76.466401,52.4075867 C74.8377228,55.9700255 73.3345183,59.4193241 71.9433971,62.7171133 L71.9275269,62.7554826 L71.8898352,62.7731915 C66.2802193,65.3891883 61.1491888,67.7818564 56.607835,69.9000367 C56.3241554,70.0323614 56.0424595,70.1632105 55.7632434,70.2935676 L55.346155,70.4878735 C55.2216732,70.5660878 55.0922319,70.6295446 54.9771731,70.7269435 C54.5055309,71.0880082 54.0824912,71.5066267 53.6802811,71.9247533 C52.8738771,72.7614984 52.1448403,73.6164444 51.4490317,74.439416 C50.0653496,76.091754 48.8408653,77.6462012 47.7443344,79.0550419 C45.5552402,81.8776425 43.8849028,84.1251961 42.7462167,85.6560314 C42.1813372,86.4184976 41.7473867,87.0043667 41.4503166,87.4047845 C41.1572141,87.8002831 41,88 41,88 C41,88 41.1388642,87.7870014 41.4235357,87.3855998 C41.7141585,86.9807549 42.139678,86.3889827 42.6936467,85.6176621 C43.8154707,84.0750209 45.4704339,81.8151695 47.6456417,78.980271 C48.7357253,77.5645435 49.9537623,76.0041933 51.3329809,74.3434928 C52.0268057,73.5165859 52.7533628,72.6581966 53.5622465,71.8130889 C53.9664404,71.3905351 54.3884883,70.9679812 54.8760006,70.5921592 C54.9925473,70.4927926 55.1368669,70.4190056 55.2712675,70.3358722 L55.68786,70.1400905 C55.9665802,70.0092415 56.2477801,69.8774086 56.5309638,69.7441 C61.0678541,67.6150977 66.1939251,65.2096398 71.7980857,62.5793775 L71.7445238,62.6354556 C73.1301897,59.3322554 74.6284347,55.8800053 76.2536412,52.3116635 C77.0694681,50.5289684 77.9160435,48.7172504 78.823124,46.8927426 C79.2774082,45.9812266 79.7455788,45.0657752 80.2425141,44.1547511 C80.7444088,43.2461866 81.2582062,42.3331948 81.899461,41.4767731 C82.0651061,41.2657421 82.2347187,41.0561869 82.4593811,40.8751627 C82.6741246,40.7064363 82.8903559,40.5637813 83.1075791,40.4058771 C83.5405377,40.0964634 83.9794477,39.7885254 84.4327399,39.4953449 C85.3368448,38.9158706 86.3118695,38.371814 87.4054247,38.1337278 C88.4910448,37.8744893 89.6694064,38.0000172 90.7039443,38.4426496 C91.2222052,38.6595835 91.7240999,38.9626024 92.1109358,39.392043 C92.5052108,39.8160726 92.7511987,40.3448798 92.9897475,40.8358096 C93.2248247,41.3321505 93.5357812,41.7773324 93.9980004,42.0518202 C94.4507968,42.3179455 95.0141885,42.4812608 95.5324494,42.696719 C96.5774021,43.1025478 97.6813721,43.5983968 98.4461169,44.5049936 C98.8354325,44.9393534 99.1225837,45.4637334 99.3849377,45.9625338 C99.654235,46.4623181 99.9413863,46.9581671 100.22705,47.4554918 C100.80036,48.4496493 101.37863,49.448726 101.938054,50.4650196 C102.740491,51.9358415 103.526065,53.4105987 104.088961,54.9630782 L104.26998,55.556818 C104.318087,55.7589945 104.355283,55.9651063 104.391486,56.1702343 C104.424219,56.6124647 104.359746,56.9971412 104.338916,57.3950993 C104.294282,58.1826531 104.286842,58.9820128 104.407357,59.7228348 L104.211955,59.642161 C105.887252,58.5786436 107.564036,57.5569389 109.243797,56.5834418 C110.927525,55.6183072 112.59935,54.6743249 114.327217,53.8897226 C114.756208,53.688038 115.198093,53.5139005 115.640475,53.346158 L116.320909,53.1346351 L117.000352,52.963941 C117.905944,52.7425799 118.811041,52.5458144 119.717626,52.3947969 C120.623714,52.2457471 121.532283,52.1365423 122.441843,52.1404776 C122.896127,52.149332 123.353387,52.1754034 123.798248,52.2939546 C124.23567,52.405619 124.695906,52.5935301 124.989008,52.9875529 L124.818404,52.9634491 C127.070483,51.3096354 129.375628,49.8250399 131.801783,48.747749 C133.012876,48.2032006 134.295386,47.870175 135.565497,47.7058759 C136.837592,47.5558422 138.118118,47.5592856 139.321277,47.9390429 L139.329708,47.9415025 L139.342106,47.949865 C140.698016,48.8544943 142.002843,49.7689618 143.260059,50.6888403 C144.510828,51.6165895 145.724898,52.5349923 146.81399,53.5503021 C147.360023,54.0623843 147.822243,54.6325122 148.279502,55.1888666 C148.731307,55.7496481 149.168233,56.308954 149.591273,56.8653083 C150.439336,57.9775251 151.24326,59.0705573 152.012964,60.1360423 C153.543942,62.2729153 154.952917,64.2863179 156.160043,66.2121599 C156.456617,66.7011221 156.733354,67.1748349 157.074067,67.5939454 C157.404365,68.0214184 157.767892,68.4095382 158.121995,68.7883118 C158.837146,69.5404478 159.559239,70.2212563 160.236698,70.8745176 C161.601038,72.1712021 162.815108,73.3345779 163.824353,74.3912084 C164.841533,75.4404603 165.635042,76.3992 166.243069,77.1995435 C166.537659,77.60734 166.80646,77.9610259 167.000374,78.2920838 C167.202719,78.6177306 167.383738,78.8848398 167.492846,79.1204664 C167.730899,79.5813895 167.845462,79.8219353 167.845462,79.8219353 C167.845462,79.8219353 167.710069,79.5907359 167.463089,79.1366996 Z" id="Fill-72" fill="#293D7E" mask="url(#mask-5)"></path>
                <path d="M224.836762,58.6853589 C224.941814,58.6853589 225.02655,64.6550202 225.02655,72.0172883 C225.02655,79.3815402 224.941814,85.3502095 224.836762,85.3502095 C224.73171,85.3502095 224.646974,79.3815402 224.646974,72.0172883 C224.646974,64.6550202 224.73171,58.6853589 224.836762,58.6853589" id="Fill-50" fill="#293D7E" mask="url(#mask-5)"></path>
            </g>
        </g>
    </g>
</svg>